<?xml version="1.0" standalone="no"?>
<svg version="1.1" width="600" height="400" xmlns="http://www.w3.org/2000/svg" xmlns:xlink="http://www.w3.org/1999/xlink"><defs><clipPath id="e2"><rect x="0" y="0" width="600" height="400"/>
</clipPath>
<symbol><g id="e3"><circle fill="orange" r="2" cursor="crosshair"/>
</g>
</symbol>
</defs>
<rect width="100%" height="100%" fill="#fff" stroke-width="0px"/>
<g clip-path="url(#e2)"><path fill="none" stroke="#ffa07a" stroke-width="1px" d="M0 57.04L3.75 55.71 7.5 55.86 11.25 55.64 15 55.21 18.75 55.14 22.5 55.21 26.25 55.47 30 55.97 33.75 56.13 37.5 51.85 41.25 50.72 45 52.64 48.75 54.68 52.5 51.88 56.25 53.33 60 54.77 63.75 55.28 67.5 55.74 71.25 55.76 75 55.42 78.75 55.05 82.5 54.75 86.25 54.2 90 53.93 93.75 53.78 97.5 53.83 101.25 53.97 105 54.08 108.75 53.96 112.5 53.49 116.25 52.84 120 52.58 123.75 51.96 127.5 51.32 131.25 49.76 135 47.95 138.75 46.51 142.5 52.53 146.25 52.53 150 51.48 153.75 50.48 157.5 49.73 161.25 48.28 165 48.13 168.75 48.02 172.5 47.92 176.25 47.47 180 46.96 183.75 46.75 187.5 46.36 191.25 45.94 195 45.11 198.75 45.21 202.5 45.22 206.25 45.28 210 45.21 213.75 44.99 217.5 44.62 221.25 44.37 225 44.04 228.75 43.89 232.5 43.7 236.25 43.41 240 42.92 243.75 42.95 247.5 43 251.25 42.97 255 43.52 258.75 43.69 262.5 43.91 266.25 44.07 270 44.35 273.75 44.68 277.5 45 281.25 45.18 285 45.09 288.75 45.02 292.5 45.27 296.25 45.58 300 45.85 303.75 45.68 307.5 45.29 311.25 44.9 315 44.65 318.75 44.63 322.5 44.58 326.25 44.36 330 44.1 333.75 43.81 337.5 43.1 341.25 43.1 345 43.16 348.75 43.08 352.5 42.98 356.25 43.08 360 43.04 363.75 42.83 367.5 42.65 371.25 42.2 375 41.63 378.75 41.33 382.5 41.19 386.25 41.03 390 40.99 393.75 41.12 397.5 41.03 401.25 40.83 405 40.68 408.75 40.35 412.5 40.22 416.25 39.95 420 40.03 423.75 40.12 427.5 40.05 431.25 39.88 435 40 438.75 39.94 442.5 39.54 446.25 39.4 450 39.55 453.75 39.28 457.5 39.06 461.25 38.98 465 38.94 468.75 38.86 472.5 38.5 476.25 38.35 480 37.79 483.75 37.37 487.5 37.11 491.25 36.79 495 36.28 498.75 36 502.5 35.64 506.25 35.19 510 34.88 513.75 34.52 517.5 34.1 521.25 33.42 525 32.97 528.75 32.73 532.5 32.31 536.25 31.91 540 31.69 543.75 31.33 547.5 31.08 551.25 30.98 555 30.99 558.75 30.77 562.5 30.54 566.25 30.6 570 30.36 573.75 29.6 577.5 29.1 581.25 28.87 585 28.93 588.75 28.71 592.5 28.46"/>
</g>
<use x="0" y="57.04" xlink:href="#e3"/>
<use x="3.75" y="55.71" xlink:href="#e3"/>
<use x="7.5" y="55.86" xlink:href="#e3"/>
<use x="11.25" y="55.64" xlink:href="#e3"/>
<use x="15" y="55.21" xlink:href="#e3"/>
<use x="18.75" y="55.14" xlink:href="#e3"/>
<use x="22.5" y="55.21" xlink:href="#e3"/>
<use x="26.25" y="55.47" xlink:href="#e3"/>
<use x="30" y="55.97" xlink:href="#e3"/>
<use x="33.75" y="56.13" xlink:href="#e3"/>
<use x="37.5" y="51.85" xlink:href="#e3"/>
<use x="41.25" y="50.72" xlink:href="#e3"/>
<use x="45" y="52.64" xlink:href="#e3"/>
<use x="48.75" y="54.68" xlink:href="#e3"/>
<use x="52.5" y="51.88" xlink:href="#e3"/>
<use x="56.25" y="53.33" xlink:href="#e3"/>
<use x="60" y="54.77" xlink:href="#e3"/>
<use x="63.75" y="55.28" xlink:href="#e3"/>
<use x="67.5" y="55.74" xlink:href="#e3"/>
<use x="71.25" y="55.76" xlink:href="#e3"/>
<use x="75" y="55.42" xlink:href="#e3"/>
<use x="78.75" y="55.05" xlink:href="#e3"/>
<use x="82.5" y="54.75" xlink:href="#e3"/>
<use x="86.25" y="54.2" xlink:href="#e3"/>
<use x="90" y="53.93" xlink:href="#e3"/>
<use x="93.75" y="53.78" xlink:href="#e3"/>
<use x="97.5" y="53.83" xlink:href="#e3"/>
<use x="101.25" y="53.97" xlink:href="#e3"/>
<use x="105" y="54.08" xlink:href="#e3"/>
<use x="108.75" y="53.96" xlink:href="#e3"/>
<use x="112.5" y="53.49" xlink:href="#e3"/>
<use x="116.25" y="52.84" xlink:href="#e3"/>
<use x="120" y="52.58" xlink:href="#e3"/>
<use x="123.75" y="51.96" xlink:href="#e3"/>
<use x="127.5" y="51.32" xlink:href="#e3"/>
<use x="131.25" y="49.76" xlink:href="#e3"/>
<use x="135" y="47.95" xlink:href="#e3"/>
<use x="138.75" y="46.51" xlink:href="#e3"/>
<use x="142.5" y="52.53" xlink:href="#e3"/>
<use x="146.25" y="52.53" xlink:href="#e3"/>
<use x="150" y="51.48" xlink:href="#e3"/>
<use x="153.75" y="50.48" xlink:href="#e3"/>
<use x="157.5" y="49.73" xlink:href="#e3"/>
<use x="161.25" y="48.28" xlink:href="#e3"/>
<use x="165" y="48.13" xlink:href="#e3"/>
<use x="168.75" y="48.02" xlink:href="#e3"/>
<use x="172.5" y="47.92" xlink:href="#e3"/>
<use x="176.25" y="47.47" xlink:href="#e3"/>
<use x="180" y="46.96" xlink:href="#e3"/>
<use x="183.75" y="46.75" xlink:href="#e3"/>
<use x="187.5" y="46.36" xlink:href="#e3"/>
<use x="191.25" y="45.94" xlink:href="#e3"/>
<use x="195" y="45.11" xlink:href="#e3"/>
<use x="198.75" y="45.21" xlink:href="#e3"/>
<use x="202.5" y="45.22" xlink:href="#e3"/>
<use x="206.25" y="45.28" xlink:href="#e3"/>
<use x="210" y="45.21" xlink:href="#e3"/>
<use x="213.75" y="44.99" xlink:href="#e3"/>
<use x="217.5" y="44.62" xlink:href="#e3"/>
<use x="221.25" y="44.37" xlink:href="#e3"/>
<use x="225" y="44.04" xlink:href="#e3"/>
<use x="228.75" y="43.89" xlink:href="#e3"/>
<use x="232.5" y="43.7" xlink:href="#e3"/>
<use x="236.25" y="43.41" xlink:href="#e3"/>
<use x="240" y="42.92" xlink:href="#e3"/>
<use x="243.75" y="42.95" xlink:href="#e3"/>
<use x="247.5" y="43" xlink:href="#e3"/>
<use x="251.25" y="42.97" xlink:href="#e3"/>
<use x="255" y="43.52" xlink:href="#e3"/>
<use x="258.75" y="43.69" xlink:href="#e3"/>
<use x="262.5" y="43.91" xlink:href="#e3"/>
<use x="266.25" y="44.07" xlink:href="#e3"/>
<use x="270" y="44.35" xlink:href="#e3"/>
<use x="273.75" y="44.68" xlink:href="#e3"/>
<use x="277.5" y="45" xlink:href="#e3"/>
<use x="281.25" y="45.18" xlink:href="#e3"/>
<use x="285" y="45.09" xlink:href="#e3"/>
<use x="288.75" y="45.02" xlink:href="#e3"/>
<use x="292.5" y="45.27" xlink:href="#e3"/>
<use x="296.25" y="45.58" xlink:href="#e3"/>
<use x="300" y="45.85" xlink:href="#e3"/>
<use x="303.75" y="45.68" xlink:href="#e3"/>
<use x="307.5" y="45.29" xlink:href="#e3"/>
<use x="311.25" y="44.9" xlink:href="#e3"/>
<use x="315" y="44.65" xlink:href="#e3"/>
<use x="318.75" y="44.63" xlink:href="#e3"/>
<use x="322.5" y="44.58" xlink:href="#e3"/>
<use x="326.25" y="44.36" xlink:href="#e3"/>
<use x="330" y="44.1" xlink:href="#e3"/>
<use x="333.75" y="43.81" xlink:href="#e3"/>
<use x="337.5" y="43.1" xlink:href="#e3"/>
<use x="341.25" y="43.1" xlink:href="#e3"/>
<use x="345" y="43.16" xlink:href="#e3"/>
<use x="348.75" y="43.08" xlink:href="#e3"/>
<use x="352.5" y="42.98" xlink:href="#e3"/>
<use x="356.25" y="43.08" xlink:href="#e3"/>
<use x="360" y="43.04" xlink:href="#e3"/>
<use x="363.75" y="42.83" xlink:href="#e3"/>
<use x="367.5" y="42.65" xlink:href="#e3"/>
<use x="371.25" y="42.2" xlink:href="#e3"/>
<use x="375" y="41.63" xlink:href="#e3"/>
<use x="378.75" y="41.33" xlink:href="#e3"/>
<use x="382.5" y="41.19" xlink:href="#e3"/>
<use x="386.25" y="41.03" xlink:href="#e3"/>
<use x="390" y="40.99" xlink:href="#e3"/>
<use x="393.75" y="41.12" xlink:href="#e3"/>
<use x="397.5" y="41.03" xlink:href="#e3"/>
<use x="401.25" y="40.83" xlink:href="#e3"/>
<use x="405" y="40.68" xlink:href="#e3"/>
<use x="408.75" y="40.35" xlink:href="#e3"/>
<use x="412.5" y="40.22" xlink:href="#e3"/>
<use x="416.25" y="39.95" xlink:href="#e3"/>
<use x="420" y="40.03" xlink:href="#e3"/>
<use x="423.75" y="40.12" xlink:href="#e3"/>
<use x="427.5" y="40.05" xlink:href="#e3"/>
<use x="431.25" y="39.88" xlink:href="#e3"/>
<use x="435" y="40" xlink:href="#e3"/>
<use x="438.75" y="39.94" xlink:href="#e3"/>
<use x="442.5" y="39.54" xlink:href="#e3"/>
<use x="446.25" y="39.4" xlink:href="#e3"/>
<use x="450" y="39.55" xlink:href="#e3"/>
<use x="453.75" y="39.28" xlink:href="#e3"/>
<use x="457.5" y="39.06" xlink:href="#e3"/>
<use x="461.25" y="38.98" xlink:href="#e3"/>
<use x="465" y="38.94" xlink:href="#e3"/>
<use x="468.75" y="38.86" xlink:href="#e3"/>
<use x="472.5" y="38.5" xlink:href="#e3"/>
<use x="476.25" y="38.35" xlink:href="#e3"/>
<use x="480" y="37.79" xlink:href="#e3"/>
<use x="483.75" y="37.37" xlink:href="#e3"/>
<use x="487.5" y="37.11" xlink:href="#e3"/>
<use x="491.25" y="36.79" xlink:href="#e3"/>
<use x="495" y="36.28" xlink:href="#e3"/>
<use x="498.75" y="36" xlink:href="#e3"/>
<use x="502.5" y="35.64" xlink:href="#e3"/>
<use x="506.25" y="35.19" xlink:href="#e3"/>
<use x="510" y="34.88" xlink:href="#e3"/>
<use x="513.75" y="34.52" xlink:href="#e3"/>
<use x="517.5" y="34.1" xlink:href="#e3"/>
<use x="521.25" y="33.42" xlink:href="#e3"/>
<use x="525" y="32.97" xlink:href="#e3"/>
<use x="528.75" y="32.73" xlink:href="#e3"/>
<use x="532.5" y="32.31" xlink:href="#e3"/>
<use x="536.25" y="31.91" xlink:href="#e3"/>
<use x="540" y="31.69" xlink:href="#e3"/>
<use x="543.75" y="31.33" xlink:href="#e3"/>
<use x="547.5" y="31.08" xlink:href="#e3"/>
<use x="551.25" y="30.98" xlink:href="#e3"/>
<use x="555" y="30.99" xlink:href="#e3"/>
<use x="558.75" y="30.77" xlink:href="#e3"/>
<use x="562.5" y="30.54" xlink:href="#e3"/>
<use x="566.25" y="30.6" xlink:href="#e3"/>
<use x="570" y="30.36" xlink:href="#e3"/>
<use x="573.75" y="29.6" xlink:href="#e3"/>
<use x="577.5" y="29.1" xlink:href="#e3"/>
<use x="581.25" y="28.87" xlink:href="#e3"/>
<use x="585" y="28.93" xlink:href="#e3"/>
<use x="588.75" y="28.71" xlink:href="#e3"/>
<use x="592.5" y="28.46" xlink:href="#e3"/>
</svg>
