<?xml version="1.0" standalone="no"?>
<svg version="1.1" width="600" height="400" xmlns="http://www.w3.org/2000/svg" xmlns:xlink="http://www.w3.org/1999/xlink"><defs><clipPath id="e2"><rect x="0" y="0" width="600" height="400"/>
</clipPath>
<symbol><g id="e3"><circle fill="orange" r="2" cursor="crosshair"/>
</g>
</symbol>
</defs>
<rect width="100%" height="100%" fill="#fff" stroke-width="0px"/>
<g clip-path="url(#e2)"><path fill="none" stroke="#ffa07a" stroke-width="1px" d="M0 399.72L2.14 399.24 4.29 399.11 6.43 398.96 8.57 398.77 10.71 398.55 12.86 398.35 15 398.17 17.14 398.02 19.29 397.92 21.43 397.81 23.57 397.64 25.71 397.39 27.86 397.23 30 397.08 32.14 396.95 34.29 396.88 36.43 396.76 38.57 396.62 40.71 396.5 42.86 396.39 45 396.3 47.14 396.2 49.29 396.12 51.43 395.98 53.57 395.88 55.71 395.78 57.86 395.71 60 395.61 62.14 395.53 64.29 394.96 66.43 393.73 68.57 393.65 70.71 393.58 72.86 393.5 75 393.43 77.14 393.35 79.29 393.25 81.43 393.17 83.57 393.1 85.71 393.01 87.86 392.93 90 392.76 92.14 392.68 94.29 392.59 96.43 392.52 98.57 392.07 100.71 391.88 102.86 391.81 105 391.07 107.14 389.72 109.29 388.59 111.43 387.54 113.57 386.06 115.71 384.52 117.86 382.85 120 381.49 122.14 380.3 124.29 379.41 126.43 378.47 128.57 377.13 130.71 374.59 132.86 373.3 135 372.15 137.14 370.8 139.29 369.47 141.43 368.04 143.57 366.66 145.71 365.38 147.86 363.9 150 362.69 152.14 361.71 154.29 360.59 156.43 359.67 158.57 358.24 160.71 356.66 162.86 355.26 165 353.78 167.14 352.77 169.29 351.57 171.43 349.92 173.57 348.42 175.71 346.88 177.86 345.33 180 343.84 182.14 342.7 184.29 341.56 186.43 340.09 188.57 338.68 190.71 337.2 192.86 335.51 195 333.94 197.14 332.52 199.29 331.29 201.43 329.87 203.57 328.21 205.71 326.48 207.86 324.61 210 323.01 212.14 321.81 214.29 320.7 216.43 318.83 218.57 317.3 220.71 316.74 222.86 315.57 225 314.22 227.14 313.25 229.29 312.34 231.43 310.42 233.57 308.71 235.71 306.79 237.86 305.24 240 303.97 242.14 302.88 244.29 301.71 246.43 300.08 248.57 298.18 250.71 296.38 252.86 294.17 255 293.4 257.14 292.48 259.29 291.19 261.43 289.77 263.57 288.49 265.71 287.26 267.86 285.3 270 284.33 272.14 283.53 274.29 282.45 276.43 281.14 278.57 280.09 280.71 280.69 282.86 284.68 285 286.82 287.14 284.61 289.29 282.99 291.43 281.92 293.57 280.53 295.71 279.47 297.86 278.61 300 276.76 302.14 275.2 304.29 273.76 306.43 272.48 308.57 271.25 310.71 270.09 312.86 269.2 315 268.24 317.14 267.07 319.29 265.78 321.43 264.05 323.57 262.72 325.71 261.6 327.86 260.81 330 260 332.14 258.68 334.29 257.36 336.43 255.89 338.57 254.94 340.71 253.88 342.86 252.97 345 251.98 347.14 250.95 349.29 251.53 351.43 255.62 353.57 258.43 355.71 258.97 357.86 258.73 360 258.16 362.14 254.92 364.29 252.84 366.43 251.06 368.57 249.28 370.71 247.39 372.86 245.34 375 243.5 377.14 241.51 379.29 239.4 381.43 237.3 383.57 234.97 385.71 233.03 387.86 231.26 390 229.21 392.14 227.29 394.29 225.39 396.43 223.33 398.57 221.02 400.71 219.36 402.86 217.65 405 215.6 407.14 215.12 409.29 218.13 411.43 219.72 413.57 219.52 415.71 217.39 417.86 215.32 420 213.01 422.14 210.67 424.29 208.27 426.43 205.77 428.57 204.06 430.71 202.95 432.86 201.88 435 199.97 437.14 198.12 439.29 196.29 441.43 194.59 443.57 192.64 445.71 190.33 447.86 187.84 450 185.2 452.14 183 454.29 180.57 456.43 177.88 458.57 175.25 460.71 172.82 462.86 170.71 465 168.38 467.14 165.84 469.29 161.69 471.43 160.4 473.57 159.43 475.71 160.56 477.86 161.86 480 161.16 482.14 159.25 484.29 157.32 486.43 155.58 488.57 154.03 490.71 152.7 492.86 150.19 495 148.43 497.14 146.02 499.29 143.74 501.43 141.66 503.57 139.17 505.71 136.99 507.86 135.09 510 132.74 512.14 130.73 514.29 127.86 516.43 125.2 518.57 122.6 520.71 120.32 522.86 112.21 525 109.09 527.14 106.28 529.29 103.91 531.43 101.98 533.57 101.2 535.71 102.66 537.86 103.44 540 103.05 542.14 101.73 544.29 99.37 546.43 97.95 548.57 96.13 550.71 94.01 552.86 91.73 555 88.78 557.14 86.37 559.29 83.96 561.43 81.8 563.57 79.87 565.71 77.29 567.86 75.11 570 73 572.14 70.67 574.29 68.16 576.43 65.9 578.57 63.7 580.71 61.22 582.86 58.72"/>
</g>
<use x="0" y="399.72" xlink:href="#e3"/>
<use x="2.14" y="399.24" xlink:href="#e3"/>
<use x="4.29" y="399.11" xlink:href="#e3"/>
<use x="6.43" y="398.96" xlink:href="#e3"/>
<use x="8.57" y="398.77" xlink:href="#e3"/>
<use x="10.71" y="398.55" xlink:href="#e3"/>
<use x="12.86" y="398.35" xlink:href="#e3"/>
<use x="15" y="398.17" xlink:href="#e3"/>
<use x="17.14" y="398.02" xlink:href="#e3"/>
<use x="19.29" y="397.92" xlink:href="#e3"/>
<use x="21.43" y="397.81" xlink:href="#e3"/>
<use x="23.57" y="397.64" xlink:href="#e3"/>
<use x="25.71" y="397.39" xlink:href="#e3"/>
<use x="27.86" y="397.23" xlink:href="#e3"/>
<use x="30" y="397.08" xlink:href="#e3"/>
<use x="32.14" y="396.95" xlink:href="#e3"/>
<use x="34.29" y="396.88" xlink:href="#e3"/>
<use x="36.43" y="396.76" xlink:href="#e3"/>
<use x="38.57" y="396.62" xlink:href="#e3"/>
<use x="40.71" y="396.5" xlink:href="#e3"/>
<use x="42.86" y="396.39" xlink:href="#e3"/>
<use x="45" y="396.3" xlink:href="#e3"/>
<use x="47.14" y="396.2" xlink:href="#e3"/>
<use x="49.29" y="396.12" xlink:href="#e3"/>
<use x="51.43" y="395.98" xlink:href="#e3"/>
<use x="53.57" y="395.88" xlink:href="#e3"/>
<use x="55.71" y="395.78" xlink:href="#e3"/>
<use x="57.86" y="395.71" xlink:href="#e3"/>
<use x="60" y="395.61" xlink:href="#e3"/>
<use x="62.14" y="395.53" xlink:href="#e3"/>
<use x="64.29" y="394.96" xlink:href="#e3"/>
<use x="66.43" y="393.73" xlink:href="#e3"/>
<use x="68.57" y="393.65" xlink:href="#e3"/>
<use x="70.71" y="393.58" xlink:href="#e3"/>
<use x="72.86" y="393.5" xlink:href="#e3"/>
<use x="75" y="393.43" xlink:href="#e3"/>
<use x="77.14" y="393.35" xlink:href="#e3"/>
<use x="79.29" y="393.25" xlink:href="#e3"/>
<use x="81.43" y="393.17" xlink:href="#e3"/>
<use x="83.57" y="393.1" xlink:href="#e3"/>
<use x="85.71" y="393.01" xlink:href="#e3"/>
<use x="87.86" y="392.93" xlink:href="#e3"/>
<use x="90" y="392.76" xlink:href="#e3"/>
<use x="92.14" y="392.68" xlink:href="#e3"/>
<use x="94.29" y="392.59" xlink:href="#e3"/>
<use x="96.43" y="392.52" xlink:href="#e3"/>
<use x="98.57" y="392.07" xlink:href="#e3"/>
<use x="100.71" y="391.88" xlink:href="#e3"/>
<use x="102.86" y="391.81" xlink:href="#e3"/>
<use x="105" y="391.07" xlink:href="#e3"/>
<use x="107.14" y="389.72" xlink:href="#e3"/>
<use x="109.29" y="388.59" xlink:href="#e3"/>
<use x="111.43" y="387.54" xlink:href="#e3"/>
<use x="113.57" y="386.06" xlink:href="#e3"/>
<use x="115.71" y="384.52" xlink:href="#e3"/>
<use x="117.86" y="382.85" xlink:href="#e3"/>
<use x="120" y="381.49" xlink:href="#e3"/>
<use x="122.14" y="380.3" xlink:href="#e3"/>
<use x="124.29" y="379.41" xlink:href="#e3"/>
<use x="126.43" y="378.47" xlink:href="#e3"/>
<use x="128.57" y="377.13" xlink:href="#e3"/>
<use x="130.71" y="374.59" xlink:href="#e3"/>
<use x="132.86" y="373.3" xlink:href="#e3"/>
<use x="135" y="372.15" xlink:href="#e3"/>
<use x="137.14" y="370.8" xlink:href="#e3"/>
<use x="139.29" y="369.47" xlink:href="#e3"/>
<use x="141.43" y="368.04" xlink:href="#e3"/>
<use x="143.57" y="366.66" xlink:href="#e3"/>
<use x="145.71" y="365.38" xlink:href="#e3"/>
<use x="147.86" y="363.9" xlink:href="#e3"/>
<use x="150" y="362.69" xlink:href="#e3"/>
<use x="152.14" y="361.71" xlink:href="#e3"/>
<use x="154.29" y="360.59" xlink:href="#e3"/>
<use x="156.43" y="359.67" xlink:href="#e3"/>
<use x="158.57" y="358.24" xlink:href="#e3"/>
<use x="160.71" y="356.66" xlink:href="#e3"/>
<use x="162.86" y="355.26" xlink:href="#e3"/>
<use x="165" y="353.78" xlink:href="#e3"/>
<use x="167.14" y="352.77" xlink:href="#e3"/>
<use x="169.29" y="351.57" xlink:href="#e3"/>
<use x="171.43" y="349.92" xlink:href="#e3"/>
<use x="173.57" y="348.42" xlink:href="#e3"/>
<use x="175.71" y="346.88" xlink:href="#e3"/>
<use x="177.86" y="345.33" xlink:href="#e3"/>
<use x="180" y="343.84" xlink:href="#e3"/>
<use x="182.14" y="342.7" xlink:href="#e3"/>
<use x="184.29" y="341.56" xlink:href="#e3"/>
<use x="186.43" y="340.09" xlink:href="#e3"/>
<use x="188.57" y="338.68" xlink:href="#e3"/>
<use x="190.71" y="337.2" xlink:href="#e3"/>
<use x="192.86" y="335.51" xlink:href="#e3"/>
<use x="195" y="333.94" xlink:href="#e3"/>
<use x="197.14" y="332.52" xlink:href="#e3"/>
<use x="199.29" y="331.29" xlink:href="#e3"/>
<use x="201.43" y="329.87" xlink:href="#e3"/>
<use x="203.57" y="328.21" xlink:href="#e3"/>
<use x="205.71" y="326.48" xlink:href="#e3"/>
<use x="207.86" y="324.61" xlink:href="#e3"/>
<use x="210" y="323.01" xlink:href="#e3"/>
<use x="212.14" y="321.81" xlink:href="#e3"/>
<use x="214.29" y="320.7" xlink:href="#e3"/>
<use x="216.43" y="318.83" xlink:href="#e3"/>
<use x="218.57" y="317.3" xlink:href="#e3"/>
<use x="220.71" y="316.74" xlink:href="#e3"/>
<use x="222.86" y="315.57" xlink:href="#e3"/>
<use x="225" y="314.22" xlink:href="#e3"/>
<use x="227.14" y="313.25" xlink:href="#e3"/>
<use x="229.29" y="312.34" xlink:href="#e3"/>
<use x="231.43" y="310.42" xlink:href="#e3"/>
<use x="233.57" y="308.71" xlink:href="#e3"/>
<use x="235.71" y="306.79" xlink:href="#e3"/>
<use x="237.86" y="305.24" xlink:href="#e3"/>
<use x="240" y="303.97" xlink:href="#e3"/>
<use x="242.14" y="302.88" xlink:href="#e3"/>
<use x="244.29" y="301.71" xlink:href="#e3"/>
<use x="246.43" y="300.08" xlink:href="#e3"/>
<use x="248.57" y="298.18" xlink:href="#e3"/>
<use x="250.71" y="296.38" xlink:href="#e3"/>
<use x="252.86" y="294.17" xlink:href="#e3"/>
<use x="255" y="293.4" xlink:href="#e3"/>
<use x="257.14" y="292.48" xlink:href="#e3"/>
<use x="259.29" y="291.19" xlink:href="#e3"/>
<use x="261.43" y="289.77" xlink:href="#e3"/>
<use x="263.57" y="288.49" xlink:href="#e3"/>
<use x="265.71" y="287.26" xlink:href="#e3"/>
<use x="267.86" y="285.3" xlink:href="#e3"/>
<use x="270" y="284.33" xlink:href="#e3"/>
<use x="272.14" y="283.53" xlink:href="#e3"/>
<use x="274.29" y="282.45" xlink:href="#e3"/>
<use x="276.43" y="281.14" xlink:href="#e3"/>
<use x="278.57" y="280.09" xlink:href="#e3"/>
<use x="280.71" y="280.69" xlink:href="#e3"/>
<use x="282.86" y="284.68" xlink:href="#e3"/>
<use x="285" y="286.82" xlink:href="#e3"/>
<use x="287.14" y="284.61" xlink:href="#e3"/>
<use x="289.29" y="282.99" xlink:href="#e3"/>
<use x="291.43" y="281.92" xlink:href="#e3"/>
<use x="293.57" y="280.53" xlink:href="#e3"/>
<use x="295.71" y="279.47" xlink:href="#e3"/>
<use x="297.86" y="278.61" xlink:href="#e3"/>
<use x="300" y="276.76" xlink:href="#e3"/>
<use x="302.14" y="275.2" xlink:href="#e3"/>
<use x="304.29" y="273.76" xlink:href="#e3"/>
<use x="306.43" y="272.48" xlink:href="#e3"/>
<use x="308.57" y="271.25" xlink:href="#e3"/>
<use x="310.71" y="270.09" xlink:href="#e3"/>
<use x="312.86" y="269.2" xlink:href="#e3"/>
<use x="315" y="268.24" xlink:href="#e3"/>
<use x="317.14" y="267.07" xlink:href="#e3"/>
<use x="319.29" y="265.78" xlink:href="#e3"/>
<use x="321.43" y="264.05" xlink:href="#e3"/>
<use x="323.57" y="262.72" xlink:href="#e3"/>
<use x="325.71" y="261.6" xlink:href="#e3"/>
<use x="327.86" y="260.81" xlink:href="#e3"/>
<use x="330" y="260" xlink:href="#e3"/>
<use x="332.14" y="258.68" xlink:href="#e3"/>
<use x="334.29" y="257.36" xlink:href="#e3"/>
<use x="336.43" y="255.89" xlink:href="#e3"/>
<use x="338.57" y="254.94" xlink:href="#e3"/>
<use x="340.71" y="253.88" xlink:href="#e3"/>
<use x="342.86" y="252.97" xlink:href="#e3"/>
<use x="345" y="251.98" xlink:href="#e3"/>
<use x="347.14" y="250.95" xlink:href="#e3"/>
<use x="349.29" y="251.53" xlink:href="#e3"/>
<use x="351.43" y="255.62" xlink:href="#e3"/>
<use x="353.57" y="258.43" xlink:href="#e3"/>
<use x="355.71" y="258.97" xlink:href="#e3"/>
<use x="357.86" y="258.73" xlink:href="#e3"/>
<use x="360" y="258.16" xlink:href="#e3"/>
<use x="362.14" y="254.92" xlink:href="#e3"/>
<use x="364.29" y="252.84" xlink:href="#e3"/>
<use x="366.43" y="251.06" xlink:href="#e3"/>
<use x="368.57" y="249.28" xlink:href="#e3"/>
<use x="370.71" y="247.39" xlink:href="#e3"/>
<use x="372.86" y="245.34" xlink:href="#e3"/>
<use x="375" y="243.5" xlink:href="#e3"/>
<use x="377.14" y="241.51" xlink:href="#e3"/>
<use x="379.29" y="239.4" xlink:href="#e3"/>
<use x="381.43" y="237.3" xlink:href="#e3"/>
<use x="383.57" y="234.97" xlink:href="#e3"/>
<use x="385.71" y="233.03" xlink:href="#e3"/>
<use x="387.86" y="231.26" xlink:href="#e3"/>
<use x="390" y="229.21" xlink:href="#e3"/>
<use x="392.14" y="227.29" xlink:href="#e3"/>
<use x="394.29" y="225.39" xlink:href="#e3"/>
<use x="396.43" y="223.33" xlink:href="#e3"/>
<use x="398.57" y="221.02" xlink:href="#e3"/>
<use x="400.71" y="219.36" xlink:href="#e3"/>
<use x="402.86" y="217.65" xlink:href="#e3"/>
<use x="405" y="215.6" xlink:href="#e3"/>
<use x="407.14" y="215.12" xlink:href="#e3"/>
<use x="409.29" y="218.13" xlink:href="#e3"/>
<use x="411.43" y="219.72" xlink:href="#e3"/>
<use x="413.57" y="219.52" xlink:href="#e3"/>
<use x="415.71" y="217.39" xlink:href="#e3"/>
<use x="417.86" y="215.32" xlink:href="#e3"/>
<use x="420" y="213.01" xlink:href="#e3"/>
<use x="422.14" y="210.67" xlink:href="#e3"/>
<use x="424.29" y="208.27" xlink:href="#e3"/>
<use x="426.43" y="205.77" xlink:href="#e3"/>
<use x="428.57" y="204.06" xlink:href="#e3"/>
<use x="430.71" y="202.95" xlink:href="#e3"/>
<use x="432.86" y="201.88" xlink:href="#e3"/>
<use x="435" y="199.97" xlink:href="#e3"/>
<use x="437.14" y="198.12" xlink:href="#e3"/>
<use x="439.29" y="196.29" xlink:href="#e3"/>
<use x="441.43" y="194.59" xlink:href="#e3"/>
<use x="443.57" y="192.64" xlink:href="#e3"/>
<use x="445.71" y="190.33" xlink:href="#e3"/>
<use x="447.86" y="187.84" xlink:href="#e3"/>
<use x="450" y="185.2" xlink:href="#e3"/>
<use x="452.14" y="183" xlink:href="#e3"/>
<use x="454.29" y="180.57" xlink:href="#e3"/>
<use x="456.43" y="177.88" xlink:href="#e3"/>
<use x="458.57" y="175.25" xlink:href="#e3"/>
<use x="460.71" y="172.82" xlink:href="#e3"/>
<use x="462.86" y="170.71" xlink:href="#e3"/>
<use x="465" y="168.38" xlink:href="#e3"/>
<use x="467.14" y="165.84" xlink:href="#e3"/>
<use x="469.29" y="161.69" xlink:href="#e3"/>
<use x="471.43" y="160.4" xlink:href="#e3"/>
<use x="473.57" y="159.43" xlink:href="#e3"/>
<use x="475.71" y="160.56" xlink:href="#e3"/>
<use x="477.86" y="161.86" xlink:href="#e3"/>
<use x="480" y="161.16" xlink:href="#e3"/>
<use x="482.14" y="159.25" xlink:href="#e3"/>
<use x="484.29" y="157.32" xlink:href="#e3"/>
<use x="486.43" y="155.58" xlink:href="#e3"/>
<use x="488.57" y="154.03" xlink:href="#e3"/>
<use x="490.71" y="152.7" xlink:href="#e3"/>
<use x="492.86" y="150.19" xlink:href="#e3"/>
<use x="495" y="148.43" xlink:href="#e3"/>
<use x="497.14" y="146.02" xlink:href="#e3"/>
<use x="499.29" y="143.74" xlink:href="#e3"/>
<use x="501.43" y="141.66" xlink:href="#e3"/>
<use x="503.57" y="139.17" xlink:href="#e3"/>
<use x="505.71" y="136.99" xlink:href="#e3"/>
<use x="507.86" y="135.09" xlink:href="#e3"/>
<use x="510" y="132.74" xlink:href="#e3"/>
<use x="512.14" y="130.73" xlink:href="#e3"/>
<use x="514.29" y="127.86" xlink:href="#e3"/>
<use x="516.43" y="125.2" xlink:href="#e3"/>
<use x="518.57" y="122.6" xlink:href="#e3"/>
<use x="520.71" y="120.32" xlink:href="#e3"/>
<use x="522.86" y="112.21" xlink:href="#e3"/>
<use x="525" y="109.09" xlink:href="#e3"/>
<use x="527.14" y="106.28" xlink:href="#e3"/>
<use x="529.29" y="103.91" xlink:href="#e3"/>
<use x="531.43" y="101.98" xlink:href="#e3"/>
<use x="533.57" y="101.2" xlink:href="#e3"/>
<use x="535.71" y="102.66" xlink:href="#e3"/>
<use x="537.86" y="103.44" xlink:href="#e3"/>
<use x="540" y="103.05" xlink:href="#e3"/>
<use x="542.14" y="101.73" xlink:href="#e3"/>
<use x="544.29" y="99.37" xlink:href="#e3"/>
<use x="546.43" y="97.95" xlink:href="#e3"/>
<use x="548.57" y="96.13" xlink:href="#e3"/>
<use x="550.71" y="94.01" xlink:href="#e3"/>
<use x="552.86" y="91.73" xlink:href="#e3"/>
<use x="555" y="88.78" xlink:href="#e3"/>
<use x="557.14" y="86.37" xlink:href="#e3"/>
<use x="559.29" y="83.96" xlink:href="#e3"/>
<use x="561.43" y="81.8" xlink:href="#e3"/>
<use x="563.57" y="79.87" xlink:href="#e3"/>
<use x="565.71" y="77.29" xlink:href="#e3"/>
<use x="567.86" y="75.11" xlink:href="#e3"/>
<use x="570" y="73" xlink:href="#e3"/>
<use x="572.14" y="70.67" xlink:href="#e3"/>
<use x="574.29" y="68.16" xlink:href="#e3"/>
<use x="576.43" y="65.9" xlink:href="#e3"/>
<use x="578.57" y="63.7" xlink:href="#e3"/>
<use x="580.71" y="61.22" xlink:href="#e3"/>
<use x="582.86" y="58.72" xlink:href="#e3"/>
</svg>
