<?xml version="1.0" standalone="no"?>
<svg version="1.1" width="600" height="400" xmlns="http://www.w3.org/2000/svg" xmlns:xlink="http://www.w3.org/1999/xlink"><defs><clipPath id="e2"><rect x="0" y="0" width="600" height="400"/>
</clipPath>
<symbol><g id="e3"><circle fill="orange" r="2" cursor="crosshair"/>
</g>
</symbol>
</defs>
<rect width="100%" height="100%" fill="#fff" stroke-width="0px"/>
<g clip-path="url(#e2)"><path fill="none" stroke="#ffa07a" stroke-width="1px" d="M0 399.66L2.22 399.05 4.44 398.88 6.67 398.69 8.89 398.46 11.11 398.19 13.33 397.94 15.56 397.72 17.78 397.52 20 397.39 22.22 397.27 24.44 397.05 26.67 396.74 28.89 396.53 31.11 396.35 33.33 396.19 35.56 396.09 37.78 395.95 40 395.77 42.22 395.62 44.44 395.49 46.67 395.38 48.89 395.25 51.11 395.15 53.33 394.97 55.56 394.85 57.78 394.73 60 394.64 62.22 394.51 64.44 394.41 66.67 393.7 68.89 392.16 71.11 392.07 73.33 391.98 75.56 391.88 77.78 391.79 80 391.69 82.22 391.57 84.44 391.47 86.67 391.38 88.89 391.26 91.11 391.16 93.33 390.95 95.56 390.85 97.78 390.74 100 390.66 102.22 390.08 104.44 389.86 106.67 389.76 108.89 388.83 111.11 387.16 113.33 385.73 115.56 384.42 117.78 382.58 120 380.65 122.22 378.56 124.44 376.86 126.67 375.37 128.89 374.27 131.11 373.08 133.33 371.41 135.56 368.23 137.78 366.63 140 365.18 142.22 363.5 144.44 361.83 146.67 360.05 148.89 358.33 151.11 356.73 153.33 354.88 155.56 353.37 157.78 352.13 160 350.74 162.22 349.59 164.44 347.8 166.67 345.83 168.89 344.08 171.11 342.23 173.33 340.97 175.56 339.47 177.78 337.41 180 335.52 182.22 333.6 184.44 331.66 186.67 329.8 188.89 328.37 191.11 326.95 193.33 325.12 195.56 323.34 197.78 321.5 200 319.38 202.22 317.43 204.44 315.65 206.67 314.12 208.89 312.34 211.11 310.27 213.33 308.1 215.56 305.76 217.78 303.77 220 302.26 222.22 300.87 224.44 298.53 226.67 296.62 228.89 295.93 231.11 294.47 233.33 292.78 235.56 291.56 237.78 290.43 240 288.03 242.22 285.89 244.44 283.49 246.67 281.55 248.89 279.97 251.11 278.59 253.33 277.13 255.56 275.1 257.78 272.73 260 270.47 262.22 267.72 264.44 266.75 266.67 265.6 268.89 263.99 271.11 262.21 273.33 260.61 275.56 259.08 277.78 256.63 280 255.41 282.22 254.42 284.44 253.07 286.67 251.43 288.89 250.11 291.11 250.87 293.33 255.85 295.56 258.53 297.78 255.76 300 253.74 302.22 252.39 304.44 250.66 306.67 249.34 308.89 248.26 311.11 245.95 313.33 244 315.56 242.2 317.78 240.61 320 239.06 322.22 237.61 324.44 236.51 326.67 235.3 328.89 233.83 331.11 232.23 333.33 230.06 335.56 228.4 337.78 226.99 340 226.01 342.22 225 344.44 223.35 346.67 221.7 348.89 219.86 351.11 218.67 353.33 217.35 355.56 216.21 357.78 214.98 360 213.68 362.22 214.41 364.44 219.53 366.67 223.03 368.89 223.72 371.11 223.41 373.33 222.7 375.56 218.65 377.78 216.05 380 213.83 382.22 211.6 384.44 209.24 386.67 206.68 388.89 204.38 391.11 201.89 393.33 199.24 395.56 196.62 397.78 193.71 400 191.29 402.22 189.07 404.44 186.51 406.67 184.12 408.89 181.74 411.11 179.16 413.33 176.27 415.56 174.2 417.78 172.07 420 169.51 422.22 168.91 424.44 172.66 426.67 174.65 428.89 174.4 431.11 171.74 433.33 169.15 435.56 166.27 437.78 163.34 440 160.34 442.22 157.22 444.44 155.07 446.67 153.69 448.89 152.34 451.11 149.96 453.33 147.65 455.56 145.37 457.78 143.24 460 140.8 462.22 137.91 464.44 134.8 466.67 131.5 468.89 128.76 471.11 125.72 473.33 122.34 475.56 119.07 477.78 116.02 480 113.38 482.22 110.48 484.44 107.3 486.67 102.11 488.89 100.51 491.11 99.29 493.33 100.7 495.56 102.33 497.78 101.45 500 99.07 502.22 96.65 504.44 94.47 506.67 92.54 508.89 90.87 511.11 87.74 513.33 85.53 515.56 82.53 517.78 79.68 520 77.08 522.22 73.97 524.44 71.24 526.67 68.87 528.89 65.92 531.11 63.42 533.33 59.83 535.56 56.5 537.78 53.25 540 50.41 542.22 40.26 544.44 36.37 546.67 32.85 548.89 29.89 551.11 27.47 553.33 26.5 555.56 28.32 557.78 29.3 560 28.81 562.22 27.17 564.44 24.21 566.67 22.43 568.89 20.16 571.11 17.52 573.33 14.66 575.56 10.98 577.78 7.97 580 4.96 582.22 2.26"/>
</g>
<use x="0" y="399.66" xlink:href="#e3"/>
<use x="2.22" y="399.05" xlink:href="#e3"/>
<use x="4.44" y="398.88" xlink:href="#e3"/>
<use x="6.67" y="398.69" xlink:href="#e3"/>
<use x="8.89" y="398.46" xlink:href="#e3"/>
<use x="11.11" y="398.19" xlink:href="#e3"/>
<use x="13.33" y="397.94" xlink:href="#e3"/>
<use x="15.56" y="397.72" xlink:href="#e3"/>
<use x="17.78" y="397.52" xlink:href="#e3"/>
<use x="20" y="397.39" xlink:href="#e3"/>
<use x="22.22" y="397.27" xlink:href="#e3"/>
<use x="24.44" y="397.05" xlink:href="#e3"/>
<use x="26.67" y="396.74" xlink:href="#e3"/>
<use x="28.89" y="396.53" xlink:href="#e3"/>
<use x="31.11" y="396.35" xlink:href="#e3"/>
<use x="33.33" y="396.19" xlink:href="#e3"/>
<use x="35.56" y="396.09" xlink:href="#e3"/>
<use x="37.78" y="395.95" xlink:href="#e3"/>
<use x="40" y="395.77" xlink:href="#e3"/>
<use x="42.22" y="395.62" xlink:href="#e3"/>
<use x="44.44" y="395.49" xlink:href="#e3"/>
<use x="46.67" y="395.38" xlink:href="#e3"/>
<use x="48.89" y="395.25" xlink:href="#e3"/>
<use x="51.11" y="395.15" xlink:href="#e3"/>
<use x="53.33" y="394.97" xlink:href="#e3"/>
<use x="55.56" y="394.85" xlink:href="#e3"/>
<use x="57.78" y="394.73" xlink:href="#e3"/>
<use x="60" y="394.64" xlink:href="#e3"/>
<use x="62.22" y="394.51" xlink:href="#e3"/>
<use x="64.44" y="394.41" xlink:href="#e3"/>
<use x="66.67" y="393.7" xlink:href="#e3"/>
<use x="68.89" y="392.16" xlink:href="#e3"/>
<use x="71.11" y="392.07" xlink:href="#e3"/>
<use x="73.33" y="391.98" xlink:href="#e3"/>
<use x="75.56" y="391.88" xlink:href="#e3"/>
<use x="77.78" y="391.79" xlink:href="#e3"/>
<use x="80" y="391.69" xlink:href="#e3"/>
<use x="82.22" y="391.57" xlink:href="#e3"/>
<use x="84.44" y="391.47" xlink:href="#e3"/>
<use x="86.67" y="391.38" xlink:href="#e3"/>
<use x="88.89" y="391.26" xlink:href="#e3"/>
<use x="91.11" y="391.16" xlink:href="#e3"/>
<use x="93.33" y="390.95" xlink:href="#e3"/>
<use x="95.56" y="390.85" xlink:href="#e3"/>
<use x="97.78" y="390.74" xlink:href="#e3"/>
<use x="100" y="390.66" xlink:href="#e3"/>
<use x="102.22" y="390.08" xlink:href="#e3"/>
<use x="104.44" y="389.86" xlink:href="#e3"/>
<use x="106.67" y="389.76" xlink:href="#e3"/>
<use x="108.89" y="388.83" xlink:href="#e3"/>
<use x="111.11" y="387.16" xlink:href="#e3"/>
<use x="113.33" y="385.73" xlink:href="#e3"/>
<use x="115.56" y="384.42" xlink:href="#e3"/>
<use x="117.78" y="382.58" xlink:href="#e3"/>
<use x="120" y="380.65" xlink:href="#e3"/>
<use x="122.22" y="378.56" xlink:href="#e3"/>
<use x="124.44" y="376.86" xlink:href="#e3"/>
<use x="126.67" y="375.37" xlink:href="#e3"/>
<use x="128.89" y="374.27" xlink:href="#e3"/>
<use x="131.11" y="373.08" xlink:href="#e3"/>
<use x="133.33" y="371.41" xlink:href="#e3"/>
<use x="135.56" y="368.23" xlink:href="#e3"/>
<use x="137.78" y="366.63" xlink:href="#e3"/>
<use x="140" y="365.18" xlink:href="#e3"/>
<use x="142.22" y="363.5" xlink:href="#e3"/>
<use x="144.44" y="361.83" xlink:href="#e3"/>
<use x="146.67" y="360.05" xlink:href="#e3"/>
<use x="148.89" y="358.33" xlink:href="#e3"/>
<use x="151.11" y="356.73" xlink:href="#e3"/>
<use x="153.33" y="354.88" xlink:href="#e3"/>
<use x="155.56" y="353.37" xlink:href="#e3"/>
<use x="157.78" y="352.13" xlink:href="#e3"/>
<use x="160" y="350.74" xlink:href="#e3"/>
<use x="162.22" y="349.59" xlink:href="#e3"/>
<use x="164.44" y="347.8" xlink:href="#e3"/>
<use x="166.67" y="345.83" xlink:href="#e3"/>
<use x="168.89" y="344.08" xlink:href="#e3"/>
<use x="171.11" y="342.23" xlink:href="#e3"/>
<use x="173.33" y="340.97" xlink:href="#e3"/>
<use x="175.56" y="339.47" xlink:href="#e3"/>
<use x="177.78" y="337.41" xlink:href="#e3"/>
<use x="180" y="335.52" xlink:href="#e3"/>
<use x="182.22" y="333.6" xlink:href="#e3"/>
<use x="184.44" y="331.66" xlink:href="#e3"/>
<use x="186.67" y="329.8" xlink:href="#e3"/>
<use x="188.89" y="328.37" xlink:href="#e3"/>
<use x="191.11" y="326.95" xlink:href="#e3"/>
<use x="193.33" y="325.12" xlink:href="#e3"/>
<use x="195.56" y="323.34" xlink:href="#e3"/>
<use x="197.78" y="321.5" xlink:href="#e3"/>
<use x="200" y="319.38" xlink:href="#e3"/>
<use x="202.22" y="317.43" xlink:href="#e3"/>
<use x="204.44" y="315.65" xlink:href="#e3"/>
<use x="206.67" y="314.12" xlink:href="#e3"/>
<use x="208.89" y="312.34" xlink:href="#e3"/>
<use x="211.11" y="310.27" xlink:href="#e3"/>
<use x="213.33" y="308.1" xlink:href="#e3"/>
<use x="215.56" y="305.76" xlink:href="#e3"/>
<use x="217.78" y="303.77" xlink:href="#e3"/>
<use x="220" y="302.26" xlink:href="#e3"/>
<use x="222.22" y="300.87" xlink:href="#e3"/>
<use x="224.44" y="298.53" xlink:href="#e3"/>
<use x="226.67" y="296.62" xlink:href="#e3"/>
<use x="228.89" y="295.93" xlink:href="#e3"/>
<use x="231.11" y="294.47" xlink:href="#e3"/>
<use x="233.33" y="292.78" xlink:href="#e3"/>
<use x="235.56" y="291.56" xlink:href="#e3"/>
<use x="237.78" y="290.43" xlink:href="#e3"/>
<use x="240" y="288.03" xlink:href="#e3"/>
<use x="242.22" y="285.89" xlink:href="#e3"/>
<use x="244.44" y="283.49" xlink:href="#e3"/>
<use x="246.67" y="281.55" xlink:href="#e3"/>
<use x="248.89" y="279.97" xlink:href="#e3"/>
<use x="251.11" y="278.59" xlink:href="#e3"/>
<use x="253.33" y="277.13" xlink:href="#e3"/>
<use x="255.56" y="275.1" xlink:href="#e3"/>
<use x="257.78" y="272.73" xlink:href="#e3"/>
<use x="260" y="270.47" xlink:href="#e3"/>
<use x="262.22" y="267.72" xlink:href="#e3"/>
<use x="264.44" y="266.75" xlink:href="#e3"/>
<use x="266.67" y="265.6" xlink:href="#e3"/>
<use x="268.89" y="263.99" xlink:href="#e3"/>
<use x="271.11" y="262.21" xlink:href="#e3"/>
<use x="273.33" y="260.61" xlink:href="#e3"/>
<use x="275.56" y="259.08" xlink:href="#e3"/>
<use x="277.78" y="256.63" xlink:href="#e3"/>
<use x="280" y="255.41" xlink:href="#e3"/>
<use x="282.22" y="254.42" xlink:href="#e3"/>
<use x="284.44" y="253.07" xlink:href="#e3"/>
<use x="286.67" y="251.43" xlink:href="#e3"/>
<use x="288.89" y="250.11" xlink:href="#e3"/>
<use x="291.11" y="250.87" xlink:href="#e3"/>
<use x="293.33" y="255.85" xlink:href="#e3"/>
<use x="295.56" y="258.53" xlink:href="#e3"/>
<use x="297.78" y="255.76" xlink:href="#e3"/>
<use x="300" y="253.74" xlink:href="#e3"/>
<use x="302.22" y="252.39" xlink:href="#e3"/>
<use x="304.44" y="250.66" xlink:href="#e3"/>
<use x="306.67" y="249.34" xlink:href="#e3"/>
<use x="308.89" y="248.26" xlink:href="#e3"/>
<use x="311.11" y="245.95" xlink:href="#e3"/>
<use x="313.33" y="244" xlink:href="#e3"/>
<use x="315.56" y="242.2" xlink:href="#e3"/>
<use x="317.78" y="240.61" xlink:href="#e3"/>
<use x="320" y="239.06" xlink:href="#e3"/>
<use x="322.22" y="237.61" xlink:href="#e3"/>
<use x="324.44" y="236.51" xlink:href="#e3"/>
<use x="326.67" y="235.3" xlink:href="#e3"/>
<use x="328.89" y="233.83" xlink:href="#e3"/>
<use x="331.11" y="232.23" xlink:href="#e3"/>
<use x="333.33" y="230.06" xlink:href="#e3"/>
<use x="335.56" y="228.4" xlink:href="#e3"/>
<use x="337.78" y="226.99" xlink:href="#e3"/>
<use x="340" y="226.01" xlink:href="#e3"/>
<use x="342.22" y="225" xlink:href="#e3"/>
<use x="344.44" y="223.35" xlink:href="#e3"/>
<use x="346.67" y="221.7" xlink:href="#e3"/>
<use x="348.89" y="219.86" xlink:href="#e3"/>
<use x="351.11" y="218.67" xlink:href="#e3"/>
<use x="353.33" y="217.35" xlink:href="#e3"/>
<use x="355.56" y="216.21" xlink:href="#e3"/>
<use x="357.78" y="214.98" xlink:href="#e3"/>
<use x="360" y="213.68" xlink:href="#e3"/>
<use x="362.22" y="214.41" xlink:href="#e3"/>
<use x="364.44" y="219.53" xlink:href="#e3"/>
<use x="366.67" y="223.03" xlink:href="#e3"/>
<use x="368.89" y="223.72" xlink:href="#e3"/>
<use x="371.11" y="223.41" xlink:href="#e3"/>
<use x="373.33" y="222.7" xlink:href="#e3"/>
<use x="375.56" y="218.65" xlink:href="#e3"/>
<use x="377.78" y="216.05" xlink:href="#e3"/>
<use x="380" y="213.83" xlink:href="#e3"/>
<use x="382.22" y="211.6" xlink:href="#e3"/>
<use x="384.44" y="209.24" xlink:href="#e3"/>
<use x="386.67" y="206.68" xlink:href="#e3"/>
<use x="388.89" y="204.38" xlink:href="#e3"/>
<use x="391.11" y="201.89" xlink:href="#e3"/>
<use x="393.33" y="199.24" xlink:href="#e3"/>
<use x="395.56" y="196.62" xlink:href="#e3"/>
<use x="397.78" y="193.71" xlink:href="#e3"/>
<use x="400" y="191.29" xlink:href="#e3"/>
<use x="402.22" y="189.07" xlink:href="#e3"/>
<use x="404.44" y="186.51" xlink:href="#e3"/>
<use x="406.67" y="184.12" xlink:href="#e3"/>
<use x="408.89" y="181.74" xlink:href="#e3"/>
<use x="411.11" y="179.16" xlink:href="#e3"/>
<use x="413.33" y="176.27" xlink:href="#e3"/>
<use x="415.56" y="174.2" xlink:href="#e3"/>
<use x="417.78" y="172.07" xlink:href="#e3"/>
<use x="420" y="169.51" xlink:href="#e3"/>
<use x="422.22" y="168.91" xlink:href="#e3"/>
<use x="424.44" y="172.66" xlink:href="#e3"/>
<use x="426.67" y="174.65" xlink:href="#e3"/>
<use x="428.89" y="174.4" xlink:href="#e3"/>
<use x="431.11" y="171.74" xlink:href="#e3"/>
<use x="433.33" y="169.15" xlink:href="#e3"/>
<use x="435.56" y="166.27" xlink:href="#e3"/>
<use x="437.78" y="163.34" xlink:href="#e3"/>
<use x="440" y="160.34" xlink:href="#e3"/>
<use x="442.22" y="157.22" xlink:href="#e3"/>
<use x="444.44" y="155.07" xlink:href="#e3"/>
<use x="446.67" y="153.69" xlink:href="#e3"/>
<use x="448.89" y="152.34" xlink:href="#e3"/>
<use x="451.11" y="149.96" xlink:href="#e3"/>
<use x="453.33" y="147.65" xlink:href="#e3"/>
<use x="455.56" y="145.37" xlink:href="#e3"/>
<use x="457.78" y="143.24" xlink:href="#e3"/>
<use x="460" y="140.8" xlink:href="#e3"/>
<use x="462.22" y="137.91" xlink:href="#e3"/>
<use x="464.44" y="134.8" xlink:href="#e3"/>
<use x="466.67" y="131.5" xlink:href="#e3"/>
<use x="468.89" y="128.76" xlink:href="#e3"/>
<use x="471.11" y="125.72" xlink:href="#e3"/>
<use x="473.33" y="122.34" xlink:href="#e3"/>
<use x="475.56" y="119.07" xlink:href="#e3"/>
<use x="477.78" y="116.02" xlink:href="#e3"/>
<use x="480" y="113.38" xlink:href="#e3"/>
<use x="482.22" y="110.48" xlink:href="#e3"/>
<use x="484.44" y="107.3" xlink:href="#e3"/>
<use x="486.67" y="102.11" xlink:href="#e3"/>
<use x="488.89" y="100.51" xlink:href="#e3"/>
<use x="491.11" y="99.29" xlink:href="#e3"/>
<use x="493.33" y="100.7" xlink:href="#e3"/>
<use x="495.56" y="102.33" xlink:href="#e3"/>
<use x="497.78" y="101.45" xlink:href="#e3"/>
<use x="500" y="99.07" xlink:href="#e3"/>
<use x="502.22" y="96.65" xlink:href="#e3"/>
<use x="504.44" y="94.47" xlink:href="#e3"/>
<use x="506.67" y="92.54" xlink:href="#e3"/>
<use x="508.89" y="90.87" xlink:href="#e3"/>
<use x="511.11" y="87.74" xlink:href="#e3"/>
<use x="513.33" y="85.53" xlink:href="#e3"/>
<use x="515.56" y="82.53" xlink:href="#e3"/>
<use x="517.78" y="79.68" xlink:href="#e3"/>
<use x="520" y="77.08" xlink:href="#e3"/>
<use x="522.22" y="73.97" xlink:href="#e3"/>
<use x="524.44" y="71.24" xlink:href="#e3"/>
<use x="526.67" y="68.87" xlink:href="#e3"/>
<use x="528.89" y="65.92" xlink:href="#e3"/>
<use x="531.11" y="63.42" xlink:href="#e3"/>
<use x="533.33" y="59.83" xlink:href="#e3"/>
<use x="535.56" y="56.5" xlink:href="#e3"/>
<use x="537.78" y="53.25" xlink:href="#e3"/>
<use x="540" y="50.41" xlink:href="#e3"/>
<use x="542.22" y="40.26" xlink:href="#e3"/>
<use x="544.44" y="36.37" xlink:href="#e3"/>
<use x="546.67" y="32.85" xlink:href="#e3"/>
<use x="548.89" y="29.89" xlink:href="#e3"/>
<use x="551.11" y="27.47" xlink:href="#e3"/>
<use x="553.33" y="26.5" xlink:href="#e3"/>
<use x="555.56" y="28.32" xlink:href="#e3"/>
<use x="557.78" y="29.3" xlink:href="#e3"/>
<use x="560" y="28.81" xlink:href="#e3"/>
<use x="562.22" y="27.17" xlink:href="#e3"/>
<use x="564.44" y="24.21" xlink:href="#e3"/>
<use x="566.67" y="22.43" xlink:href="#e3"/>
<use x="568.89" y="20.16" xlink:href="#e3"/>
<use x="571.11" y="17.52" xlink:href="#e3"/>
<use x="573.33" y="14.66" xlink:href="#e3"/>
<use x="575.56" y="10.98" xlink:href="#e3"/>
<use x="577.78" y="7.97" xlink:href="#e3"/>
<use x="580" y="4.96" xlink:href="#e3"/>
<use x="582.22" y="2.26" xlink:href="#e3"/>
</svg>
