<?xml version="1.0" standalone="no"?>
<svg version="1.1" width="600" height="400" xmlns="http://www.w3.org/2000/svg" xmlns:xlink="http://www.w3.org/1999/xlink"><defs><clipPath id="e2"><rect x="0" y="0" width="600" height="400"/>
</clipPath>
<symbol><g id="e3"><circle fill="orange" r="2" cursor="crosshair"/>
</g>
</symbol>
</defs>
<rect width="100%" height="100%" fill="#fff" stroke-width="0px"/>
<g clip-path="url(#e2)"><path fill="none" stroke="#ffa07a" stroke-width="1px" d="M0 399.72L2.22 399.24 4.44 399.11 6.67 398.96 8.89 398.77 11.11 398.55 13.33 398.35 15.56 398.17 17.78 398.02 20 397.92 22.22 397.81 24.44 397.64 26.67 397.39 28.89 397.23 31.11 397.08 33.33 396.95 35.56 396.88 37.78 396.76 40 396.62 42.22 396.5 44.44 396.39 46.67 396.3 48.89 396.2 51.11 396.12 53.33 395.98 55.56 395.88 57.78 395.78 60 395.71 62.22 395.61 64.44 395.53 66.67 394.96 68.89 393.73 71.11 393.65 73.33 393.58 75.56 393.5 77.78 393.43 80 393.35 82.22 393.25 84.44 393.17 86.67 393.1 88.89 393.01 91.11 392.93 93.33 392.76 95.56 392.68 97.78 392.59 100 392.52 102.22 392.07 104.44 391.88 106.67 391.81 108.89 391.07 111.11 389.72 113.33 388.59 115.56 387.54 117.78 386.06 120 384.52 122.22 382.85 124.44 381.49 126.67 380.3 128.89 379.41 131.11 378.47 133.33 377.13 135.56 374.59 137.78 373.3 140 372.15 142.22 370.8 144.44 369.47 146.67 368.04 148.89 366.66 151.11 365.38 153.33 363.9 155.56 362.69 157.78 361.71 160 360.59 162.22 359.67 164.44 358.24 166.67 356.66 168.89 355.26 171.11 353.78 173.33 352.77 175.56 351.57 177.78 349.92 180 348.42 182.22 346.88 184.44 345.33 186.67 343.84 188.89 342.7 191.11 341.56 193.33 340.09 195.56 338.68 197.78 337.2 200 335.51 202.22 333.94 204.44 332.52 206.67 331.29 208.89 329.87 211.11 328.21 213.33 326.48 215.56 324.61 217.78 323.01 220 321.81 222.22 320.7 224.44 318.83 226.67 317.3 228.89 316.74 231.11 315.57 233.33 314.22 235.56 313.25 237.78 312.34 240 310.42 242.22 308.71 244.44 306.79 246.67 305.24 248.89 303.97 251.11 302.88 253.33 301.71 255.56 300.08 257.78 298.18 260 296.38 262.22 294.17 264.44 293.4 266.67 292.48 268.89 291.19 271.11 289.77 273.33 288.49 275.56 287.26 277.78 285.3 280 284.33 282.22 283.53 284.44 282.45 286.67 281.14 288.89 280.09 291.11 280.69 293.33 284.68 295.56 286.82 297.78 284.61 300 282.99 302.22 281.92 304.44 280.53 306.67 279.47 308.89 278.61 311.11 276.76 313.33 275.2 315.56 273.76 317.78 272.48 320 271.25 322.22 270.09 324.44 269.2 326.67 268.24 328.89 267.07 331.11 265.78 333.33 264.05 335.56 262.72 337.78 261.6 340 260.81 342.22 260 344.44 258.68 346.67 257.36 348.89 255.89 351.11 254.94 353.33 253.88 355.56 252.97 357.78 251.98 360 250.95 362.22 251.53 364.44 255.62 366.67 258.43 368.89 258.97 371.11 258.73 373.33 258.16 375.56 254.92 377.78 252.84 380 251.06 382.22 249.28 384.44 247.39 386.67 245.34 388.89 243.5 391.11 241.51 393.33 239.4 395.56 237.3 397.78 234.97 400 233.03 402.22 231.26 404.44 229.21 406.67 227.29 408.89 225.39 411.11 223.33 413.33 221.02 415.56 219.36 417.78 217.65 420 215.6 422.22 215.12 424.44 218.13 426.67 219.72 428.89 219.52 431.11 217.39 433.33 215.32 435.56 213.01 437.78 210.67 440 208.27 442.22 205.77 444.44 204.06 446.67 202.95 448.89 201.88 451.11 199.97 453.33 198.12 455.56 196.29 457.78 194.59 460 192.64 462.22 190.33 464.44 187.84 466.67 185.2 468.89 183 471.11 180.57 473.33 177.88 475.56 175.25 477.78 172.82 480 170.71 482.22 168.38 484.44 165.84 486.67 161.69 488.89 160.4 491.11 159.43 493.33 160.56 495.56 161.86 497.78 161.16 500 159.25 502.22 157.32 504.44 155.58 506.67 154.03 508.89 152.7 511.11 150.19 513.33 148.43 515.56 146.02 517.78 143.74 520 141.66 522.22 139.17 524.44 136.99 526.67 135.09 528.89 132.74 531.11 130.73 533.33 127.86 535.56 125.2 537.78 122.6 540 120.32 542.22 112.21 544.44 109.09 546.67 106.28 548.89 103.91 551.11 101.98 553.33 101.2 555.56 102.66 557.78 103.44 560 103.05 562.22 101.73 564.44 99.37 566.67 97.95 568.89 96.13 571.11 94.01 573.33 91.73 575.56 88.78 577.78 86.37 580 83.96 582.22 81.8 584.44 79.87 586.67 77.29 588.89 75.11 591.11 73 593.33 70.67 595.56 68.16 597.78 65.9"/>
</g>
<use x="0" y="399.72" xlink:href="#e3"/>
<use x="2.22" y="399.24" xlink:href="#e3"/>
<use x="4.44" y="399.11" xlink:href="#e3"/>
<use x="6.67" y="398.96" xlink:href="#e3"/>
<use x="8.89" y="398.77" xlink:href="#e3"/>
<use x="11.11" y="398.55" xlink:href="#e3"/>
<use x="13.33" y="398.35" xlink:href="#e3"/>
<use x="15.56" y="398.17" xlink:href="#e3"/>
<use x="17.78" y="398.02" xlink:href="#e3"/>
<use x="20" y="397.92" xlink:href="#e3"/>
<use x="22.22" y="397.81" xlink:href="#e3"/>
<use x="24.44" y="397.64" xlink:href="#e3"/>
<use x="26.67" y="397.39" xlink:href="#e3"/>
<use x="28.89" y="397.23" xlink:href="#e3"/>
<use x="31.11" y="397.08" xlink:href="#e3"/>
<use x="33.33" y="396.95" xlink:href="#e3"/>
<use x="35.56" y="396.88" xlink:href="#e3"/>
<use x="37.78" y="396.76" xlink:href="#e3"/>
<use x="40" y="396.62" xlink:href="#e3"/>
<use x="42.22" y="396.5" xlink:href="#e3"/>
<use x="44.44" y="396.39" xlink:href="#e3"/>
<use x="46.67" y="396.3" xlink:href="#e3"/>
<use x="48.89" y="396.2" xlink:href="#e3"/>
<use x="51.11" y="396.12" xlink:href="#e3"/>
<use x="53.33" y="395.98" xlink:href="#e3"/>
<use x="55.56" y="395.88" xlink:href="#e3"/>
<use x="57.78" y="395.78" xlink:href="#e3"/>
<use x="60" y="395.71" xlink:href="#e3"/>
<use x="62.22" y="395.61" xlink:href="#e3"/>
<use x="64.44" y="395.53" xlink:href="#e3"/>
<use x="66.67" y="394.96" xlink:href="#e3"/>
<use x="68.89" y="393.73" xlink:href="#e3"/>
<use x="71.11" y="393.65" xlink:href="#e3"/>
<use x="73.33" y="393.58" xlink:href="#e3"/>
<use x="75.56" y="393.5" xlink:href="#e3"/>
<use x="77.78" y="393.43" xlink:href="#e3"/>
<use x="80" y="393.35" xlink:href="#e3"/>
<use x="82.22" y="393.25" xlink:href="#e3"/>
<use x="84.44" y="393.17" xlink:href="#e3"/>
<use x="86.67" y="393.1" xlink:href="#e3"/>
<use x="88.89" y="393.01" xlink:href="#e3"/>
<use x="91.11" y="392.93" xlink:href="#e3"/>
<use x="93.33" y="392.76" xlink:href="#e3"/>
<use x="95.56" y="392.68" xlink:href="#e3"/>
<use x="97.78" y="392.59" xlink:href="#e3"/>
<use x="100" y="392.52" xlink:href="#e3"/>
<use x="102.22" y="392.07" xlink:href="#e3"/>
<use x="104.44" y="391.88" xlink:href="#e3"/>
<use x="106.67" y="391.81" xlink:href="#e3"/>
<use x="108.89" y="391.07" xlink:href="#e3"/>
<use x="111.11" y="389.72" xlink:href="#e3"/>
<use x="113.33" y="388.59" xlink:href="#e3"/>
<use x="115.56" y="387.54" xlink:href="#e3"/>
<use x="117.78" y="386.06" xlink:href="#e3"/>
<use x="120" y="384.52" xlink:href="#e3"/>
<use x="122.22" y="382.85" xlink:href="#e3"/>
<use x="124.44" y="381.49" xlink:href="#e3"/>
<use x="126.67" y="380.3" xlink:href="#e3"/>
<use x="128.89" y="379.41" xlink:href="#e3"/>
<use x="131.11" y="378.47" xlink:href="#e3"/>
<use x="133.33" y="377.13" xlink:href="#e3"/>
<use x="135.56" y="374.59" xlink:href="#e3"/>
<use x="137.78" y="373.3" xlink:href="#e3"/>
<use x="140" y="372.15" xlink:href="#e3"/>
<use x="142.22" y="370.8" xlink:href="#e3"/>
<use x="144.44" y="369.47" xlink:href="#e3"/>
<use x="146.67" y="368.04" xlink:href="#e3"/>
<use x="148.89" y="366.66" xlink:href="#e3"/>
<use x="151.11" y="365.38" xlink:href="#e3"/>
<use x="153.33" y="363.9" xlink:href="#e3"/>
<use x="155.56" y="362.69" xlink:href="#e3"/>
<use x="157.78" y="361.71" xlink:href="#e3"/>
<use x="160" y="360.59" xlink:href="#e3"/>
<use x="162.22" y="359.67" xlink:href="#e3"/>
<use x="164.44" y="358.24" xlink:href="#e3"/>
<use x="166.67" y="356.66" xlink:href="#e3"/>
<use x="168.89" y="355.26" xlink:href="#e3"/>
<use x="171.11" y="353.78" xlink:href="#e3"/>
<use x="173.33" y="352.77" xlink:href="#e3"/>
<use x="175.56" y="351.57" xlink:href="#e3"/>
<use x="177.78" y="349.92" xlink:href="#e3"/>
<use x="180" y="348.42" xlink:href="#e3"/>
<use x="182.22" y="346.88" xlink:href="#e3"/>
<use x="184.44" y="345.33" xlink:href="#e3"/>
<use x="186.67" y="343.84" xlink:href="#e3"/>
<use x="188.89" y="342.7" xlink:href="#e3"/>
<use x="191.11" y="341.56" xlink:href="#e3"/>
<use x="193.33" y="340.09" xlink:href="#e3"/>
<use x="195.56" y="338.68" xlink:href="#e3"/>
<use x="197.78" y="337.2" xlink:href="#e3"/>
<use x="200" y="335.51" xlink:href="#e3"/>
<use x="202.22" y="333.94" xlink:href="#e3"/>
<use x="204.44" y="332.52" xlink:href="#e3"/>
<use x="206.67" y="331.29" xlink:href="#e3"/>
<use x="208.89" y="329.87" xlink:href="#e3"/>
<use x="211.11" y="328.21" xlink:href="#e3"/>
<use x="213.33" y="326.48" xlink:href="#e3"/>
<use x="215.56" y="324.61" xlink:href="#e3"/>
<use x="217.78" y="323.01" xlink:href="#e3"/>
<use x="220" y="321.81" xlink:href="#e3"/>
<use x="222.22" y="320.7" xlink:href="#e3"/>
<use x="224.44" y="318.83" xlink:href="#e3"/>
<use x="226.67" y="317.3" xlink:href="#e3"/>
<use x="228.89" y="316.74" xlink:href="#e3"/>
<use x="231.11" y="315.57" xlink:href="#e3"/>
<use x="233.33" y="314.22" xlink:href="#e3"/>
<use x="235.56" y="313.25" xlink:href="#e3"/>
<use x="237.78" y="312.34" xlink:href="#e3"/>
<use x="240" y="310.42" xlink:href="#e3"/>
<use x="242.22" y="308.71" xlink:href="#e3"/>
<use x="244.44" y="306.79" xlink:href="#e3"/>
<use x="246.67" y="305.24" xlink:href="#e3"/>
<use x="248.89" y="303.97" xlink:href="#e3"/>
<use x="251.11" y="302.88" xlink:href="#e3"/>
<use x="253.33" y="301.71" xlink:href="#e3"/>
<use x="255.56" y="300.08" xlink:href="#e3"/>
<use x="257.78" y="298.18" xlink:href="#e3"/>
<use x="260" y="296.38" xlink:href="#e3"/>
<use x="262.22" y="294.17" xlink:href="#e3"/>
<use x="264.44" y="293.4" xlink:href="#e3"/>
<use x="266.67" y="292.48" xlink:href="#e3"/>
<use x="268.89" y="291.19" xlink:href="#e3"/>
<use x="271.11" y="289.77" xlink:href="#e3"/>
<use x="273.33" y="288.49" xlink:href="#e3"/>
<use x="275.56" y="287.26" xlink:href="#e3"/>
<use x="277.78" y="285.3" xlink:href="#e3"/>
<use x="280" y="284.33" xlink:href="#e3"/>
<use x="282.22" y="283.53" xlink:href="#e3"/>
<use x="284.44" y="282.45" xlink:href="#e3"/>
<use x="286.67" y="281.14" xlink:href="#e3"/>
<use x="288.89" y="280.09" xlink:href="#e3"/>
<use x="291.11" y="280.69" xlink:href="#e3"/>
<use x="293.33" y="284.68" xlink:href="#e3"/>
<use x="295.56" y="286.82" xlink:href="#e3"/>
<use x="297.78" y="284.61" xlink:href="#e3"/>
<use x="300" y="282.99" xlink:href="#e3"/>
<use x="302.22" y="281.92" xlink:href="#e3"/>
<use x="304.44" y="280.53" xlink:href="#e3"/>
<use x="306.67" y="279.47" xlink:href="#e3"/>
<use x="308.89" y="278.61" xlink:href="#e3"/>
<use x="311.11" y="276.76" xlink:href="#e3"/>
<use x="313.33" y="275.2" xlink:href="#e3"/>
<use x="315.56" y="273.76" xlink:href="#e3"/>
<use x="317.78" y="272.48" xlink:href="#e3"/>
<use x="320" y="271.25" xlink:href="#e3"/>
<use x="322.22" y="270.09" xlink:href="#e3"/>
<use x="324.44" y="269.2" xlink:href="#e3"/>
<use x="326.67" y="268.24" xlink:href="#e3"/>
<use x="328.89" y="267.07" xlink:href="#e3"/>
<use x="331.11" y="265.78" xlink:href="#e3"/>
<use x="333.33" y="264.05" xlink:href="#e3"/>
<use x="335.56" y="262.72" xlink:href="#e3"/>
<use x="337.78" y="261.6" xlink:href="#e3"/>
<use x="340" y="260.81" xlink:href="#e3"/>
<use x="342.22" y="260" xlink:href="#e3"/>
<use x="344.44" y="258.68" xlink:href="#e3"/>
<use x="346.67" y="257.36" xlink:href="#e3"/>
<use x="348.89" y="255.89" xlink:href="#e3"/>
<use x="351.11" y="254.94" xlink:href="#e3"/>
<use x="353.33" y="253.88" xlink:href="#e3"/>
<use x="355.56" y="252.97" xlink:href="#e3"/>
<use x="357.78" y="251.98" xlink:href="#e3"/>
<use x="360" y="250.95" xlink:href="#e3"/>
<use x="362.22" y="251.53" xlink:href="#e3"/>
<use x="364.44" y="255.62" xlink:href="#e3"/>
<use x="366.67" y="258.43" xlink:href="#e3"/>
<use x="368.89" y="258.97" xlink:href="#e3"/>
<use x="371.11" y="258.73" xlink:href="#e3"/>
<use x="373.33" y="258.16" xlink:href="#e3"/>
<use x="375.56" y="254.92" xlink:href="#e3"/>
<use x="377.78" y="252.84" xlink:href="#e3"/>
<use x="380" y="251.06" xlink:href="#e3"/>
<use x="382.22" y="249.28" xlink:href="#e3"/>
<use x="384.44" y="247.39" xlink:href="#e3"/>
<use x="386.67" y="245.34" xlink:href="#e3"/>
<use x="388.89" y="243.5" xlink:href="#e3"/>
<use x="391.11" y="241.51" xlink:href="#e3"/>
<use x="393.33" y="239.4" xlink:href="#e3"/>
<use x="395.56" y="237.3" xlink:href="#e3"/>
<use x="397.78" y="234.97" xlink:href="#e3"/>
<use x="400" y="233.03" xlink:href="#e3"/>
<use x="402.22" y="231.26" xlink:href="#e3"/>
<use x="404.44" y="229.21" xlink:href="#e3"/>
<use x="406.67" y="227.29" xlink:href="#e3"/>
<use x="408.89" y="225.39" xlink:href="#e3"/>
<use x="411.11" y="223.33" xlink:href="#e3"/>
<use x="413.33" y="221.02" xlink:href="#e3"/>
<use x="415.56" y="219.36" xlink:href="#e3"/>
<use x="417.78" y="217.65" xlink:href="#e3"/>
<use x="420" y="215.6" xlink:href="#e3"/>
<use x="422.22" y="215.12" xlink:href="#e3"/>
<use x="424.44" y="218.13" xlink:href="#e3"/>
<use x="426.67" y="219.72" xlink:href="#e3"/>
<use x="428.89" y="219.52" xlink:href="#e3"/>
<use x="431.11" y="217.39" xlink:href="#e3"/>
<use x="433.33" y="215.32" xlink:href="#e3"/>
<use x="435.56" y="213.01" xlink:href="#e3"/>
<use x="437.78" y="210.67" xlink:href="#e3"/>
<use x="440" y="208.27" xlink:href="#e3"/>
<use x="442.22" y="205.77" xlink:href="#e3"/>
<use x="444.44" y="204.06" xlink:href="#e3"/>
<use x="446.67" y="202.95" xlink:href="#e3"/>
<use x="448.89" y="201.88" xlink:href="#e3"/>
<use x="451.11" y="199.97" xlink:href="#e3"/>
<use x="453.33" y="198.12" xlink:href="#e3"/>
<use x="455.56" y="196.29" xlink:href="#e3"/>
<use x="457.78" y="194.59" xlink:href="#e3"/>
<use x="460" y="192.64" xlink:href="#e3"/>
<use x="462.22" y="190.33" xlink:href="#e3"/>
<use x="464.44" y="187.84" xlink:href="#e3"/>
<use x="466.67" y="185.2" xlink:href="#e3"/>
<use x="468.89" y="183" xlink:href="#e3"/>
<use x="471.11" y="180.57" xlink:href="#e3"/>
<use x="473.33" y="177.88" xlink:href="#e3"/>
<use x="475.56" y="175.25" xlink:href="#e3"/>
<use x="477.78" y="172.82" xlink:href="#e3"/>
<use x="480" y="170.71" xlink:href="#e3"/>
<use x="482.22" y="168.38" xlink:href="#e3"/>
<use x="484.44" y="165.84" xlink:href="#e3"/>
<use x="486.67" y="161.69" xlink:href="#e3"/>
<use x="488.89" y="160.4" xlink:href="#e3"/>
<use x="491.11" y="159.43" xlink:href="#e3"/>
<use x="493.33" y="160.56" xlink:href="#e3"/>
<use x="495.56" y="161.86" xlink:href="#e3"/>
<use x="497.78" y="161.16" xlink:href="#e3"/>
<use x="500" y="159.25" xlink:href="#e3"/>
<use x="502.22" y="157.32" xlink:href="#e3"/>
<use x="504.44" y="155.58" xlink:href="#e3"/>
<use x="506.67" y="154.03" xlink:href="#e3"/>
<use x="508.89" y="152.7" xlink:href="#e3"/>
<use x="511.11" y="150.19" xlink:href="#e3"/>
<use x="513.33" y="148.43" xlink:href="#e3"/>
<use x="515.56" y="146.02" xlink:href="#e3"/>
<use x="517.78" y="143.74" xlink:href="#e3"/>
<use x="520" y="141.66" xlink:href="#e3"/>
<use x="522.22" y="139.17" xlink:href="#e3"/>
<use x="524.44" y="136.99" xlink:href="#e3"/>
<use x="526.67" y="135.09" xlink:href="#e3"/>
<use x="528.89" y="132.74" xlink:href="#e3"/>
<use x="531.11" y="130.73" xlink:href="#e3"/>
<use x="533.33" y="127.86" xlink:href="#e3"/>
<use x="535.56" y="125.2" xlink:href="#e3"/>
<use x="537.78" y="122.6" xlink:href="#e3"/>
<use x="540" y="120.32" xlink:href="#e3"/>
<use x="542.22" y="112.21" xlink:href="#e3"/>
<use x="544.44" y="109.09" xlink:href="#e3"/>
<use x="546.67" y="106.28" xlink:href="#e3"/>
<use x="548.89" y="103.91" xlink:href="#e3"/>
<use x="551.11" y="101.98" xlink:href="#e3"/>
<use x="553.33" y="101.2" xlink:href="#e3"/>
<use x="555.56" y="102.66" xlink:href="#e3"/>
<use x="557.78" y="103.44" xlink:href="#e3"/>
<use x="560" y="103.05" xlink:href="#e3"/>
<use x="562.22" y="101.73" xlink:href="#e3"/>
<use x="564.44" y="99.37" xlink:href="#e3"/>
<use x="566.67" y="97.95" xlink:href="#e3"/>
<use x="568.89" y="96.13" xlink:href="#e3"/>
<use x="571.11" y="94.01" xlink:href="#e3"/>
<use x="573.33" y="91.73" xlink:href="#e3"/>
<use x="575.56" y="88.78" xlink:href="#e3"/>
<use x="577.78" y="86.37" xlink:href="#e3"/>
<use x="580" y="83.96" xlink:href="#e3"/>
<use x="582.22" y="81.8" xlink:href="#e3"/>
<use x="584.44" y="79.87" xlink:href="#e3"/>
<use x="586.67" y="77.29" xlink:href="#e3"/>
<use x="588.89" y="75.11" xlink:href="#e3"/>
<use x="591.11" y="73" xlink:href="#e3"/>
<use x="593.33" y="70.67" xlink:href="#e3"/>
<use x="595.56" y="68.16" xlink:href="#e3"/>
<use x="597.78" y="65.9" xlink:href="#e3"/>
</svg>
