<?xml version="1.0" standalone="no"?>
<svg version="1.1" width="600" height="400" xmlns="http://www.w3.org/2000/svg" xmlns:xlink="http://www.w3.org/1999/xlink"><defs><clipPath id="e2"><rect x="0" y="0" width="600" height="400"/>
</clipPath>
<symbol><g id="e3"><circle fill="orange" r="2" cursor="crosshair"/>
</g>
</symbol>
</defs>
<rect width="100%" height="100%" fill="#fff" stroke-width="0px"/>
<g clip-path="url(#e2)"><path fill="none" stroke="#ffa07a" stroke-width="1px" d="M0 259.54L2.14 259.18 4.29 258.81 6.43 251.19 8.57 242.49 10.71 229.47 12.86 221.66 15 216.03 17.14 210.02 19.29 204.29 21.43 198.9 23.57 194.91 25.71 192.09 27.86 189.35 30 187.12 32.14 184.71 34.29 182.47 36.43 177.34 38.57 174.44 40.71 171.74 42.86 166.29 45 163.22 47.14 159.19 49.29 156.52 51.43 153.85 53.57 151.11 55.71 148.32 57.86 145.71 60 143.46 62.14 141.26 64.29 140.63 66.43 138.98 68.57 138.28 70.71 136.03 72.86 133.34 75 132.67 77.14 130.78 79.29 128.42 81.43 126.2 83.57 123.92 85.71 121.62 87.86 120.62 90 119.11 92.14 117.48 94.29 116.92 96.43 116.56 98.57 116.15 100.71 114.52 102.86 112.27 105 110.77 107.14 109.92 109.29 108.08 111.43 107.7 113.57 107.41 115.71 107.15 117.86 106.69 120 106.4 122.14 106.14 124.29 105.85 126.43 105.5 128.57 105.07 130.71 104.57 132.86 104.53 135 104.66 137.14 104.14 139.29 103.67 141.43 103.32 143.57 103.16 145.71 103.02 147.86 102.7 150 102.34 152.14 102.03 154.29 101.71 156.43 104.26 158.57 104.28 160.71 104.32 162.86 104.23 165 104.15 167.14 103.96 169.29 103.79 171.43 103.62 173.57 103.59 175.71 103.57 177.86 103.44 180 103.24 182.14 103.08 184.29 102.94 186.43 102.86 188.57 102.84 190.71 102.75 192.86 102.6 195 102.15 197.14 102.02 199.29 102.05 201.43 101.88 203.57 101.89 205.71 101.93 207.86 101.85 210 101.55 212.14 101.47 214.29 101.37 216.43 101.15 218.57 101.09 220.71 101.03 222.86 100.75 225 100.51 227.14 100.19 229.29 99.98 231.43 99.78 233.57 99.63 235.71 99.55 237.86 99.35 240 99.06 242.14 98.79 244.29 98.84 246.43 98.62 248.57 98.49 250.71 98.36 252.86 98.08 255 97.77 257.14 97.47 259.29 96.5 261.43 95.99 263.57 96.08 265.71 96 267.86 95.78 270 95.43 272.14 95.41 274.29 95.37 276.43 95.24 278.57 95.26 280.71 95.19 282.86 94.98 285 94.93 287.14 94.71 289.29 94.57 291.43 94.39 293.57 94.32 295.71 94.6 297.86 94.4 300 94.18 302.14 93.93 304.29 93.63 306.43 93.45 308.57 93.35 310.71 93.42 312.86 93.13 315 92.32 317.14 91.93 319.29 91.37 321.43 91.21 323.57 91.55 325.71 92.01 327.86 92.18 330 91.69 332.14 91.21 334.29 90.82 336.43 90.56 338.57 90.63 340.71 90.58 342.86 90.53 345 90.29 347.14 90.2 349.29 90.16 351.43 90.1 353.57 90.08 355.71 89.98 357.86 89.85 360 89.62 362.14 89.24 364.29 89.06 366.43 89.04 368.57 88.96 370.71 88.87 372.86 88.65 375 88.48 377.14 88.23 379.29 88.31 381.43 88.1 383.57 88.03 385.71 87.87 387.86 88.02 390 87.74 392.14 87.2 394.29 87.03 396.43 86.88 398.57 86.82 400.71 86.7 402.86 86.5 405 86.32 407.14 86.05 409.29 85.88 411.43 85.7 413.57 85.52 415.71 85.41 417.86 85.34 420 85.16 422.14 84.93 424.29 84.71 426.43 84.49 428.57 84.27 430.71 84.2 432.86 83.98 435 83.72 437.14 83.41 439.29 82.65 441.43 82.45 443.57 82.28 445.71 81.96 447.86 81.72 450 81.69 452.14 81.25 454.29 80.79 456.43 80.68 458.57 80.57 460.71 80.45 462.86 80.13 465 79.85 467.14 79.45 469.29 79.21 471.43 78.98 473.57 78.78 475.71 78.61 477.86 78.03 480 77.65 482.14 77.14 484.29 76.91 486.43 76.79 488.57 76.72 490.71 76.46 492.86 76.18 495 75.92 497.14 75.62 499.29 75.39 501.43 75.25 503.57 75.16 505.71 74.98 507.86 74.7 510 73.7 512.14 73.41 514.29 73.14 516.43 73 518.57 72.87 520.71 72.54 522.86 72.2 525 71.92 527.14 71.57 529.29 71.28 531.43 71.08 533.57 70.94 535.71 70.7 537.86 70.41 540 70.07 542.14 69.79 544.29 69.54 546.43 69.4 548.57 69.31 550.71 69.2 552.86 68.85 555 69.32 557.14 69.05 559.29 68.92 561.43 68.99 563.57 69.08 565.71 69.14 567.86 69.08 570 69 572.14 68.89 574.29 68.91 576.43 68.96 578.57 69.01 580.71 69.03 582.86 69.03 585 69.06 587.14 69.07 589.29 69.07 591.43 69.15 593.57 69.23 595.71 69.28"/>
</g>
<use x="0" y="259.54" xlink:href="#e3"/>
<use x="2.14" y="259.18" xlink:href="#e3"/>
<use x="4.29" y="258.81" xlink:href="#e3"/>
<use x="6.43" y="251.19" xlink:href="#e3"/>
<use x="8.57" y="242.49" xlink:href="#e3"/>
<use x="10.71" y="229.47" xlink:href="#e3"/>
<use x="12.86" y="221.66" xlink:href="#e3"/>
<use x="15" y="216.03" xlink:href="#e3"/>
<use x="17.14" y="210.02" xlink:href="#e3"/>
<use x="19.29" y="204.29" xlink:href="#e3"/>
<use x="21.43" y="198.9" xlink:href="#e3"/>
<use x="23.57" y="194.91" xlink:href="#e3"/>
<use x="25.71" y="192.09" xlink:href="#e3"/>
<use x="27.86" y="189.35" xlink:href="#e3"/>
<use x="30" y="187.12" xlink:href="#e3"/>
<use x="32.14" y="184.71" xlink:href="#e3"/>
<use x="34.29" y="182.47" xlink:href="#e3"/>
<use x="36.43" y="177.34" xlink:href="#e3"/>
<use x="38.57" y="174.44" xlink:href="#e3"/>
<use x="40.71" y="171.74" xlink:href="#e3"/>
<use x="42.86" y="166.29" xlink:href="#e3"/>
<use x="45" y="163.22" xlink:href="#e3"/>
<use x="47.14" y="159.19" xlink:href="#e3"/>
<use x="49.29" y="156.52" xlink:href="#e3"/>
<use x="51.43" y="153.85" xlink:href="#e3"/>
<use x="53.57" y="151.11" xlink:href="#e3"/>
<use x="55.71" y="148.32" xlink:href="#e3"/>
<use x="57.86" y="145.71" xlink:href="#e3"/>
<use x="60" y="143.46" xlink:href="#e3"/>
<use x="62.14" y="141.26" xlink:href="#e3"/>
<use x="64.29" y="140.63" xlink:href="#e3"/>
<use x="66.43" y="138.98" xlink:href="#e3"/>
<use x="68.57" y="138.28" xlink:href="#e3"/>
<use x="70.71" y="136.03" xlink:href="#e3"/>
<use x="72.86" y="133.34" xlink:href="#e3"/>
<use x="75" y="132.67" xlink:href="#e3"/>
<use x="77.14" y="130.78" xlink:href="#e3"/>
<use x="79.29" y="128.42" xlink:href="#e3"/>
<use x="81.43" y="126.2" xlink:href="#e3"/>
<use x="83.57" y="123.92" xlink:href="#e3"/>
<use x="85.71" y="121.62" xlink:href="#e3"/>
<use x="87.86" y="120.62" xlink:href="#e3"/>
<use x="90" y="119.11" xlink:href="#e3"/>
<use x="92.14" y="117.48" xlink:href="#e3"/>
<use x="94.29" y="116.92" xlink:href="#e3"/>
<use x="96.43" y="116.56" xlink:href="#e3"/>
<use x="98.57" y="116.15" xlink:href="#e3"/>
<use x="100.71" y="114.52" xlink:href="#e3"/>
<use x="102.86" y="112.27" xlink:href="#e3"/>
<use x="105" y="110.77" xlink:href="#e3"/>
<use x="107.14" y="109.92" xlink:href="#e3"/>
<use x="109.29" y="108.08" xlink:href="#e3"/>
<use x="111.43" y="107.7" xlink:href="#e3"/>
<use x="113.57" y="107.41" xlink:href="#e3"/>
<use x="115.71" y="107.15" xlink:href="#e3"/>
<use x="117.86" y="106.69" xlink:href="#e3"/>
<use x="120" y="106.4" xlink:href="#e3"/>
<use x="122.14" y="106.14" xlink:href="#e3"/>
<use x="124.29" y="105.85" xlink:href="#e3"/>
<use x="126.43" y="105.5" xlink:href="#e3"/>
<use x="128.57" y="105.07" xlink:href="#e3"/>
<use x="130.71" y="104.57" xlink:href="#e3"/>
<use x="132.86" y="104.53" xlink:href="#e3"/>
<use x="135" y="104.66" xlink:href="#e3"/>
<use x="137.14" y="104.14" xlink:href="#e3"/>
<use x="139.29" y="103.67" xlink:href="#e3"/>
<use x="141.43" y="103.32" xlink:href="#e3"/>
<use x="143.57" y="103.16" xlink:href="#e3"/>
<use x="145.71" y="103.02" xlink:href="#e3"/>
<use x="147.86" y="102.7" xlink:href="#e3"/>
<use x="150" y="102.34" xlink:href="#e3"/>
<use x="152.14" y="102.03" xlink:href="#e3"/>
<use x="154.29" y="101.71" xlink:href="#e3"/>
<use x="156.43" y="104.26" xlink:href="#e3"/>
<use x="158.57" y="104.28" xlink:href="#e3"/>
<use x="160.71" y="104.32" xlink:href="#e3"/>
<use x="162.86" y="104.23" xlink:href="#e3"/>
<use x="165" y="104.15" xlink:href="#e3"/>
<use x="167.14" y="103.96" xlink:href="#e3"/>
<use x="169.29" y="103.79" xlink:href="#e3"/>
<use x="171.43" y="103.62" xlink:href="#e3"/>
<use x="173.57" y="103.59" xlink:href="#e3"/>
<use x="175.71" y="103.57" xlink:href="#e3"/>
<use x="177.86" y="103.44" xlink:href="#e3"/>
<use x="180" y="103.24" xlink:href="#e3"/>
<use x="182.14" y="103.08" xlink:href="#e3"/>
<use x="184.29" y="102.94" xlink:href="#e3"/>
<use x="186.43" y="102.86" xlink:href="#e3"/>
<use x="188.57" y="102.84" xlink:href="#e3"/>
<use x="190.71" y="102.75" xlink:href="#e3"/>
<use x="192.86" y="102.6" xlink:href="#e3"/>
<use x="195" y="102.15" xlink:href="#e3"/>
<use x="197.14" y="102.02" xlink:href="#e3"/>
<use x="199.29" y="102.05" xlink:href="#e3"/>
<use x="201.43" y="101.88" xlink:href="#e3"/>
<use x="203.57" y="101.89" xlink:href="#e3"/>
<use x="205.71" y="101.93" xlink:href="#e3"/>
<use x="207.86" y="101.85" xlink:href="#e3"/>
<use x="210" y="101.55" xlink:href="#e3"/>
<use x="212.14" y="101.47" xlink:href="#e3"/>
<use x="214.29" y="101.37" xlink:href="#e3"/>
<use x="216.43" y="101.15" xlink:href="#e3"/>
<use x="218.57" y="101.09" xlink:href="#e3"/>
<use x="220.71" y="101.03" xlink:href="#e3"/>
<use x="222.86" y="100.75" xlink:href="#e3"/>
<use x="225" y="100.51" xlink:href="#e3"/>
<use x="227.14" y="100.19" xlink:href="#e3"/>
<use x="229.29" y="99.98" xlink:href="#e3"/>
<use x="231.43" y="99.78" xlink:href="#e3"/>
<use x="233.57" y="99.63" xlink:href="#e3"/>
<use x="235.71" y="99.55" xlink:href="#e3"/>
<use x="237.86" y="99.35" xlink:href="#e3"/>
<use x="240" y="99.06" xlink:href="#e3"/>
<use x="242.14" y="98.79" xlink:href="#e3"/>
<use x="244.29" y="98.84" xlink:href="#e3"/>
<use x="246.43" y="98.62" xlink:href="#e3"/>
<use x="248.57" y="98.49" xlink:href="#e3"/>
<use x="250.71" y="98.36" xlink:href="#e3"/>
<use x="252.86" y="98.08" xlink:href="#e3"/>
<use x="255" y="97.77" xlink:href="#e3"/>
<use x="257.14" y="97.47" xlink:href="#e3"/>
<use x="259.29" y="96.5" xlink:href="#e3"/>
<use x="261.43" y="95.99" xlink:href="#e3"/>
<use x="263.57" y="96.08" xlink:href="#e3"/>
<use x="265.71" y="96" xlink:href="#e3"/>
<use x="267.86" y="95.78" xlink:href="#e3"/>
<use x="270" y="95.43" xlink:href="#e3"/>
<use x="272.14" y="95.41" xlink:href="#e3"/>
<use x="274.29" y="95.37" xlink:href="#e3"/>
<use x="276.43" y="95.24" xlink:href="#e3"/>
<use x="278.57" y="95.26" xlink:href="#e3"/>
<use x="280.71" y="95.19" xlink:href="#e3"/>
<use x="282.86" y="94.98" xlink:href="#e3"/>
<use x="285" y="94.93" xlink:href="#e3"/>
<use x="287.14" y="94.71" xlink:href="#e3"/>
<use x="289.29" y="94.57" xlink:href="#e3"/>
<use x="291.43" y="94.39" xlink:href="#e3"/>
<use x="293.57" y="94.32" xlink:href="#e3"/>
<use x="295.71" y="94.6" xlink:href="#e3"/>
<use x="297.86" y="94.4" xlink:href="#e3"/>
<use x="300" y="94.18" xlink:href="#e3"/>
<use x="302.14" y="93.93" xlink:href="#e3"/>
<use x="304.29" y="93.63" xlink:href="#e3"/>
<use x="306.43" y="93.45" xlink:href="#e3"/>
<use x="308.57" y="93.35" xlink:href="#e3"/>
<use x="310.71" y="93.42" xlink:href="#e3"/>
<use x="312.86" y="93.13" xlink:href="#e3"/>
<use x="315" y="92.32" xlink:href="#e3"/>
<use x="317.14" y="91.93" xlink:href="#e3"/>
<use x="319.29" y="91.37" xlink:href="#e3"/>
<use x="321.43" y="91.21" xlink:href="#e3"/>
<use x="323.57" y="91.55" xlink:href="#e3"/>
<use x="325.71" y="92.01" xlink:href="#e3"/>
<use x="327.86" y="92.18" xlink:href="#e3"/>
<use x="330" y="91.69" xlink:href="#e3"/>
<use x="332.14" y="91.21" xlink:href="#e3"/>
<use x="334.29" y="90.82" xlink:href="#e3"/>
<use x="336.43" y="90.56" xlink:href="#e3"/>
<use x="338.57" y="90.63" xlink:href="#e3"/>
<use x="340.71" y="90.58" xlink:href="#e3"/>
<use x="342.86" y="90.53" xlink:href="#e3"/>
<use x="345" y="90.29" xlink:href="#e3"/>
<use x="347.14" y="90.2" xlink:href="#e3"/>
<use x="349.29" y="90.16" xlink:href="#e3"/>
<use x="351.43" y="90.1" xlink:href="#e3"/>
<use x="353.57" y="90.08" xlink:href="#e3"/>
<use x="355.71" y="89.98" xlink:href="#e3"/>
<use x="357.86" y="89.85" xlink:href="#e3"/>
<use x="360" y="89.62" xlink:href="#e3"/>
<use x="362.14" y="89.24" xlink:href="#e3"/>
<use x="364.29" y="89.06" xlink:href="#e3"/>
<use x="366.43" y="89.04" xlink:href="#e3"/>
<use x="368.57" y="88.96" xlink:href="#e3"/>
<use x="370.71" y="88.87" xlink:href="#e3"/>
<use x="372.86" y="88.65" xlink:href="#e3"/>
<use x="375" y="88.48" xlink:href="#e3"/>
<use x="377.14" y="88.23" xlink:href="#e3"/>
<use x="379.29" y="88.31" xlink:href="#e3"/>
<use x="381.43" y="88.1" xlink:href="#e3"/>
<use x="383.57" y="88.03" xlink:href="#e3"/>
<use x="385.71" y="87.87" xlink:href="#e3"/>
<use x="387.86" y="88.02" xlink:href="#e3"/>
<use x="390" y="87.74" xlink:href="#e3"/>
<use x="392.14" y="87.2" xlink:href="#e3"/>
<use x="394.29" y="87.03" xlink:href="#e3"/>
<use x="396.43" y="86.88" xlink:href="#e3"/>
<use x="398.57" y="86.82" xlink:href="#e3"/>
<use x="400.71" y="86.7" xlink:href="#e3"/>
<use x="402.86" y="86.5" xlink:href="#e3"/>
<use x="405" y="86.32" xlink:href="#e3"/>
<use x="407.14" y="86.05" xlink:href="#e3"/>
<use x="409.29" y="85.88" xlink:href="#e3"/>
<use x="411.43" y="85.7" xlink:href="#e3"/>
<use x="413.57" y="85.52" xlink:href="#e3"/>
<use x="415.71" y="85.41" xlink:href="#e3"/>
<use x="417.86" y="85.34" xlink:href="#e3"/>
<use x="420" y="85.16" xlink:href="#e3"/>
<use x="422.14" y="84.93" xlink:href="#e3"/>
<use x="424.29" y="84.71" xlink:href="#e3"/>
<use x="426.43" y="84.49" xlink:href="#e3"/>
<use x="428.57" y="84.27" xlink:href="#e3"/>
<use x="430.71" y="84.2" xlink:href="#e3"/>
<use x="432.86" y="83.98" xlink:href="#e3"/>
<use x="435" y="83.72" xlink:href="#e3"/>
<use x="437.14" y="83.41" xlink:href="#e3"/>
<use x="439.29" y="82.65" xlink:href="#e3"/>
<use x="441.43" y="82.45" xlink:href="#e3"/>
<use x="443.57" y="82.28" xlink:href="#e3"/>
<use x="445.71" y="81.96" xlink:href="#e3"/>
<use x="447.86" y="81.72" xlink:href="#e3"/>
<use x="450" y="81.69" xlink:href="#e3"/>
<use x="452.14" y="81.25" xlink:href="#e3"/>
<use x="454.29" y="80.79" xlink:href="#e3"/>
<use x="456.43" y="80.68" xlink:href="#e3"/>
<use x="458.57" y="80.57" xlink:href="#e3"/>
<use x="460.71" y="80.45" xlink:href="#e3"/>
<use x="462.86" y="80.13" xlink:href="#e3"/>
<use x="465" y="79.85" xlink:href="#e3"/>
<use x="467.14" y="79.45" xlink:href="#e3"/>
<use x="469.29" y="79.21" xlink:href="#e3"/>
<use x="471.43" y="78.98" xlink:href="#e3"/>
<use x="473.57" y="78.78" xlink:href="#e3"/>
<use x="475.71" y="78.61" xlink:href="#e3"/>
<use x="477.86" y="78.03" xlink:href="#e3"/>
<use x="480" y="77.65" xlink:href="#e3"/>
<use x="482.14" y="77.14" xlink:href="#e3"/>
<use x="484.29" y="76.91" xlink:href="#e3"/>
<use x="486.43" y="76.79" xlink:href="#e3"/>
<use x="488.57" y="76.72" xlink:href="#e3"/>
<use x="490.71" y="76.46" xlink:href="#e3"/>
<use x="492.86" y="76.18" xlink:href="#e3"/>
<use x="495" y="75.92" xlink:href="#e3"/>
<use x="497.14" y="75.62" xlink:href="#e3"/>
<use x="499.29" y="75.39" xlink:href="#e3"/>
<use x="501.43" y="75.25" xlink:href="#e3"/>
<use x="503.57" y="75.16" xlink:href="#e3"/>
<use x="505.71" y="74.98" xlink:href="#e3"/>
<use x="507.86" y="74.7" xlink:href="#e3"/>
<use x="510" y="73.7" xlink:href="#e3"/>
<use x="512.14" y="73.41" xlink:href="#e3"/>
<use x="514.29" y="73.14" xlink:href="#e3"/>
<use x="516.43" y="73" xlink:href="#e3"/>
<use x="518.57" y="72.87" xlink:href="#e3"/>
<use x="520.71" y="72.54" xlink:href="#e3"/>
<use x="522.86" y="72.2" xlink:href="#e3"/>
<use x="525" y="71.92" xlink:href="#e3"/>
<use x="527.14" y="71.57" xlink:href="#e3"/>
<use x="529.29" y="71.28" xlink:href="#e3"/>
<use x="531.43" y="71.08" xlink:href="#e3"/>
<use x="533.57" y="70.94" xlink:href="#e3"/>
<use x="535.71" y="70.7" xlink:href="#e3"/>
<use x="537.86" y="70.41" xlink:href="#e3"/>
<use x="540" y="70.07" xlink:href="#e3"/>
<use x="542.14" y="69.79" xlink:href="#e3"/>
<use x="544.29" y="69.54" xlink:href="#e3"/>
<use x="546.43" y="69.4" xlink:href="#e3"/>
<use x="548.57" y="69.31" xlink:href="#e3"/>
<use x="550.71" y="69.2" xlink:href="#e3"/>
<use x="552.86" y="68.85" xlink:href="#e3"/>
<use x="555" y="69.32" xlink:href="#e3"/>
<use x="557.14" y="69.05" xlink:href="#e3"/>
<use x="559.29" y="68.92" xlink:href="#e3"/>
<use x="561.43" y="68.99" xlink:href="#e3"/>
<use x="563.57" y="69.08" xlink:href="#e3"/>
<use x="565.71" y="69.14" xlink:href="#e3"/>
<use x="567.86" y="69.08" xlink:href="#e3"/>
<use x="570" y="69" xlink:href="#e3"/>
<use x="572.14" y="68.89" xlink:href="#e3"/>
<use x="574.29" y="68.91" xlink:href="#e3"/>
<use x="576.43" y="68.96" xlink:href="#e3"/>
<use x="578.57" y="69.01" xlink:href="#e3"/>
<use x="580.71" y="69.03" xlink:href="#e3"/>
<use x="582.86" y="69.03" xlink:href="#e3"/>
<use x="585" y="69.06" xlink:href="#e3"/>
<use x="587.14" y="69.07" xlink:href="#e3"/>
<use x="589.29" y="69.07" xlink:href="#e3"/>
<use x="591.43" y="69.15" xlink:href="#e3"/>
<use x="593.57" y="69.23" xlink:href="#e3"/>
<use x="595.71" y="69.28" xlink:href="#e3"/>
</svg>
