<?xml version="1.0" standalone="no"?>
<svg version="1.1" width="600" height="400" xmlns="http://www.w3.org/2000/svg" xmlns:xlink="http://www.w3.org/1999/xlink"><defs><clipPath id="e2"><rect x="0" y="0" width="600" height="400"/>
</clipPath>
<symbol><g id="e3"><circle fill="orange" r="2" cursor="crosshair"/>
</g>
</symbol>
</defs>
<rect width="100%" height="100%" fill="#fff" stroke-width="0px"/>
<g clip-path="url(#e2)"><path fill="none" stroke="#ffa07a" stroke-width="1px" d="M0 259.54L2.22 259.18 4.44 258.81 6.67 251.19 8.89 242.49 11.11 229.47 13.33 221.66 15.56 216.03 17.78 210.02 20 204.29 22.22 198.9 24.44 194.91 26.67 192.09 28.89 189.35 31.11 187.12 33.33 184.71 35.56 182.47 37.78 177.34 40 174.44 42.22 171.74 44.44 166.29 46.67 163.22 48.89 159.19 51.11 156.52 53.33 153.85 55.56 151.11 57.78 148.32 60 145.71 62.22 143.46 64.44 141.26 66.67 140.63 68.89 138.98 71.11 138.28 73.33 136.03 75.56 133.34 77.78 132.67 80 130.78 82.22 128.42 84.44 126.2 86.67 123.92 88.89 121.62 91.11 120.62 93.33 119.11 95.56 117.48 97.78 116.92 100 116.56 102.22 116.15 104.44 114.52 106.67 112.27 108.89 110.77 111.11 109.92 113.33 108.08 115.56 107.7 117.78 107.41 120 107.15 122.22 106.69 124.44 106.4 126.67 106.14 128.89 105.85 131.11 105.5 133.33 105.07 135.56 104.57 137.78 104.53 140 104.66 142.22 104.14 144.44 103.67 146.67 103.32 148.89 103.16 151.11 103.02 153.33 102.7 155.56 102.34 157.78 102.03 160 101.71 162.22 104.26 164.44 104.28 166.67 104.32 168.89 104.23 171.11 104.15 173.33 103.96 175.56 103.79 177.78 103.62 180 103.59 182.22 103.57 184.44 103.44 186.67 103.24 188.89 103.08 191.11 102.94 193.33 102.86 195.56 102.84 197.78 102.75 200 102.6 202.22 102.15 204.44 102.02 206.67 102.05 208.89 101.88 211.11 101.89 213.33 101.93 215.56 101.85 217.78 101.55 220 101.47 222.22 101.37 224.44 101.15 226.67 101.09 228.89 101.03 231.11 100.75 233.33 100.51 235.56 100.19 237.78 99.98 240 99.78 242.22 99.63 244.44 99.55 246.67 99.35 248.89 99.06 251.11 98.79 253.33 98.84 255.56 98.62 257.78 98.49 260 98.36 262.22 98.08 264.44 97.77 266.67 97.47 268.89 96.5 271.11 95.99 273.33 96.08 275.56 96 277.78 95.78 280 95.43 282.22 95.41 284.44 95.37 286.67 95.24 288.89 95.26 291.11 95.19 293.33 94.98 295.56 94.93 297.78 94.71 300 94.57 302.22 94.39 304.44 94.32 306.67 94.6 308.89 94.4 311.11 94.18 313.33 93.93 315.56 93.63 317.78 93.45 320 93.35 322.22 93.42 324.44 93.13 326.67 92.32 328.89 91.93 331.11 91.37 333.33 91.21 335.56 91.55 337.78 92.01 340 92.18 342.22 91.69 344.44 91.21 346.67 90.82 348.89 90.56 351.11 90.63 353.33 90.58 355.56 90.53 357.78 90.29 360 90.2 362.22 90.16 364.44 90.1 366.67 90.08 368.89 89.98 371.11 89.85 373.33 89.62 375.56 89.24 377.78 89.06 380 89.04 382.22 88.96 384.44 88.87 386.67 88.65 388.89 88.48 391.11 88.23 393.33 88.31 395.56 88.1 397.78 88.03 400 87.87 402.22 88.02 404.44 87.74 406.67 87.2 408.89 87.03 411.11 86.88 413.33 86.82 415.56 86.7 417.78 86.5 420 86.32 422.22 86.05 424.44 85.88 426.67 85.7 428.89 85.52 431.11 85.41 433.33 85.34 435.56 85.16 437.78 84.93 440 84.71 442.22 84.49 444.44 84.27 446.67 84.2 448.89 83.98 451.11 83.72 453.33 83.41 455.56 82.65 457.78 82.45 460 82.28 462.22 81.96 464.44 81.72 466.67 81.69 468.89 81.25 471.11 80.79 473.33 80.68 475.56 80.57 477.78 80.45 480 80.13 482.22 79.85 484.44 79.45 486.67 79.21 488.89 78.98 491.11 78.78 493.33 78.61 495.56 78.03 497.78 77.65 500 77.14 502.22 76.91 504.44 76.79 506.67 76.72 508.89 76.46 511.11 76.18 513.33 75.92 515.56 75.62 517.78 75.39 520 75.25 522.22 75.16 524.44 74.98 526.67 74.7 528.89 73.7 531.11 73.41 533.33 73.14 535.56 73 537.78 72.87 540 72.54 542.22 72.2 544.44 71.92 546.67 71.57 548.89 71.28 551.11 71.08 553.33 70.94 555.56 70.7 557.78 70.41 560 70.07 562.22 69.79 564.44 69.54 566.67 69.4 568.89 69.31 571.11 69.2 573.33 68.85 575.56 69.32 577.78 69.05 580 68.92 582.22 68.99 584.44 69.08 586.67 69.14 588.89 69.08 591.11 69 593.33 68.89 595.56 68.91 597.78 68.96 600 69.01"/>
</g>
<use x="0" y="259.54" xlink:href="#e3"/>
<use x="2.22" y="259.18" xlink:href="#e3"/>
<use x="4.44" y="258.81" xlink:href="#e3"/>
<use x="6.67" y="251.19" xlink:href="#e3"/>
<use x="8.89" y="242.49" xlink:href="#e3"/>
<use x="11.11" y="229.47" xlink:href="#e3"/>
<use x="13.33" y="221.66" xlink:href="#e3"/>
<use x="15.56" y="216.03" xlink:href="#e3"/>
<use x="17.78" y="210.02" xlink:href="#e3"/>
<use x="20" y="204.29" xlink:href="#e3"/>
<use x="22.22" y="198.9" xlink:href="#e3"/>
<use x="24.44" y="194.91" xlink:href="#e3"/>
<use x="26.67" y="192.09" xlink:href="#e3"/>
<use x="28.89" y="189.35" xlink:href="#e3"/>
<use x="31.11" y="187.12" xlink:href="#e3"/>
<use x="33.33" y="184.71" xlink:href="#e3"/>
<use x="35.56" y="182.47" xlink:href="#e3"/>
<use x="37.78" y="177.34" xlink:href="#e3"/>
<use x="40" y="174.44" xlink:href="#e3"/>
<use x="42.22" y="171.74" xlink:href="#e3"/>
<use x="44.44" y="166.29" xlink:href="#e3"/>
<use x="46.67" y="163.22" xlink:href="#e3"/>
<use x="48.89" y="159.19" xlink:href="#e3"/>
<use x="51.11" y="156.52" xlink:href="#e3"/>
<use x="53.33" y="153.85" xlink:href="#e3"/>
<use x="55.56" y="151.11" xlink:href="#e3"/>
<use x="57.78" y="148.32" xlink:href="#e3"/>
<use x="60" y="145.71" xlink:href="#e3"/>
<use x="62.22" y="143.46" xlink:href="#e3"/>
<use x="64.44" y="141.26" xlink:href="#e3"/>
<use x="66.67" y="140.63" xlink:href="#e3"/>
<use x="68.89" y="138.98" xlink:href="#e3"/>
<use x="71.11" y="138.28" xlink:href="#e3"/>
<use x="73.33" y="136.03" xlink:href="#e3"/>
<use x="75.56" y="133.34" xlink:href="#e3"/>
<use x="77.78" y="132.67" xlink:href="#e3"/>
<use x="80" y="130.78" xlink:href="#e3"/>
<use x="82.22" y="128.42" xlink:href="#e3"/>
<use x="84.44" y="126.2" xlink:href="#e3"/>
<use x="86.67" y="123.92" xlink:href="#e3"/>
<use x="88.89" y="121.62" xlink:href="#e3"/>
<use x="91.11" y="120.62" xlink:href="#e3"/>
<use x="93.33" y="119.11" xlink:href="#e3"/>
<use x="95.56" y="117.48" xlink:href="#e3"/>
<use x="97.78" y="116.92" xlink:href="#e3"/>
<use x="100" y="116.56" xlink:href="#e3"/>
<use x="102.22" y="116.15" xlink:href="#e3"/>
<use x="104.44" y="114.52" xlink:href="#e3"/>
<use x="106.67" y="112.27" xlink:href="#e3"/>
<use x="108.89" y="110.77" xlink:href="#e3"/>
<use x="111.11" y="109.92" xlink:href="#e3"/>
<use x="113.33" y="108.08" xlink:href="#e3"/>
<use x="115.56" y="107.7" xlink:href="#e3"/>
<use x="117.78" y="107.41" xlink:href="#e3"/>
<use x="120" y="107.15" xlink:href="#e3"/>
<use x="122.22" y="106.69" xlink:href="#e3"/>
<use x="124.44" y="106.4" xlink:href="#e3"/>
<use x="126.67" y="106.14" xlink:href="#e3"/>
<use x="128.89" y="105.85" xlink:href="#e3"/>
<use x="131.11" y="105.5" xlink:href="#e3"/>
<use x="133.33" y="105.07" xlink:href="#e3"/>
<use x="135.56" y="104.57" xlink:href="#e3"/>
<use x="137.78" y="104.53" xlink:href="#e3"/>
<use x="140" y="104.66" xlink:href="#e3"/>
<use x="142.22" y="104.14" xlink:href="#e3"/>
<use x="144.44" y="103.67" xlink:href="#e3"/>
<use x="146.67" y="103.32" xlink:href="#e3"/>
<use x="148.89" y="103.16" xlink:href="#e3"/>
<use x="151.11" y="103.02" xlink:href="#e3"/>
<use x="153.33" y="102.7" xlink:href="#e3"/>
<use x="155.56" y="102.34" xlink:href="#e3"/>
<use x="157.78" y="102.03" xlink:href="#e3"/>
<use x="160" y="101.71" xlink:href="#e3"/>
<use x="162.22" y="104.26" xlink:href="#e3"/>
<use x="164.44" y="104.28" xlink:href="#e3"/>
<use x="166.67" y="104.32" xlink:href="#e3"/>
<use x="168.89" y="104.23" xlink:href="#e3"/>
<use x="171.11" y="104.15" xlink:href="#e3"/>
<use x="173.33" y="103.96" xlink:href="#e3"/>
<use x="175.56" y="103.79" xlink:href="#e3"/>
<use x="177.78" y="103.62" xlink:href="#e3"/>
<use x="180" y="103.59" xlink:href="#e3"/>
<use x="182.22" y="103.57" xlink:href="#e3"/>
<use x="184.44" y="103.44" xlink:href="#e3"/>
<use x="186.67" y="103.24" xlink:href="#e3"/>
<use x="188.89" y="103.08" xlink:href="#e3"/>
<use x="191.11" y="102.94" xlink:href="#e3"/>
<use x="193.33" y="102.86" xlink:href="#e3"/>
<use x="195.56" y="102.84" xlink:href="#e3"/>
<use x="197.78" y="102.75" xlink:href="#e3"/>
<use x="200" y="102.6" xlink:href="#e3"/>
<use x="202.22" y="102.15" xlink:href="#e3"/>
<use x="204.44" y="102.02" xlink:href="#e3"/>
<use x="206.67" y="102.05" xlink:href="#e3"/>
<use x="208.89" y="101.88" xlink:href="#e3"/>
<use x="211.11" y="101.89" xlink:href="#e3"/>
<use x="213.33" y="101.93" xlink:href="#e3"/>
<use x="215.56" y="101.85" xlink:href="#e3"/>
<use x="217.78" y="101.55" xlink:href="#e3"/>
<use x="220" y="101.47" xlink:href="#e3"/>
<use x="222.22" y="101.37" xlink:href="#e3"/>
<use x="224.44" y="101.15" xlink:href="#e3"/>
<use x="226.67" y="101.09" xlink:href="#e3"/>
<use x="228.89" y="101.03" xlink:href="#e3"/>
<use x="231.11" y="100.75" xlink:href="#e3"/>
<use x="233.33" y="100.51" xlink:href="#e3"/>
<use x="235.56" y="100.19" xlink:href="#e3"/>
<use x="237.78" y="99.98" xlink:href="#e3"/>
<use x="240" y="99.78" xlink:href="#e3"/>
<use x="242.22" y="99.63" xlink:href="#e3"/>
<use x="244.44" y="99.55" xlink:href="#e3"/>
<use x="246.67" y="99.35" xlink:href="#e3"/>
<use x="248.89" y="99.06" xlink:href="#e3"/>
<use x="251.11" y="98.79" xlink:href="#e3"/>
<use x="253.33" y="98.84" xlink:href="#e3"/>
<use x="255.56" y="98.62" xlink:href="#e3"/>
<use x="257.78" y="98.49" xlink:href="#e3"/>
<use x="260" y="98.36" xlink:href="#e3"/>
<use x="262.22" y="98.08" xlink:href="#e3"/>
<use x="264.44" y="97.77" xlink:href="#e3"/>
<use x="266.67" y="97.47" xlink:href="#e3"/>
<use x="268.89" y="96.5" xlink:href="#e3"/>
<use x="271.11" y="95.99" xlink:href="#e3"/>
<use x="273.33" y="96.08" xlink:href="#e3"/>
<use x="275.56" y="96" xlink:href="#e3"/>
<use x="277.78" y="95.78" xlink:href="#e3"/>
<use x="280" y="95.43" xlink:href="#e3"/>
<use x="282.22" y="95.41" xlink:href="#e3"/>
<use x="284.44" y="95.37" xlink:href="#e3"/>
<use x="286.67" y="95.24" xlink:href="#e3"/>
<use x="288.89" y="95.26" xlink:href="#e3"/>
<use x="291.11" y="95.19" xlink:href="#e3"/>
<use x="293.33" y="94.98" xlink:href="#e3"/>
<use x="295.56" y="94.93" xlink:href="#e3"/>
<use x="297.78" y="94.71" xlink:href="#e3"/>
<use x="300" y="94.57" xlink:href="#e3"/>
<use x="302.22" y="94.39" xlink:href="#e3"/>
<use x="304.44" y="94.32" xlink:href="#e3"/>
<use x="306.67" y="94.6" xlink:href="#e3"/>
<use x="308.89" y="94.4" xlink:href="#e3"/>
<use x="311.11" y="94.18" xlink:href="#e3"/>
<use x="313.33" y="93.93" xlink:href="#e3"/>
<use x="315.56" y="93.63" xlink:href="#e3"/>
<use x="317.78" y="93.45" xlink:href="#e3"/>
<use x="320" y="93.35" xlink:href="#e3"/>
<use x="322.22" y="93.42" xlink:href="#e3"/>
<use x="324.44" y="93.13" xlink:href="#e3"/>
<use x="326.67" y="92.32" xlink:href="#e3"/>
<use x="328.89" y="91.93" xlink:href="#e3"/>
<use x="331.11" y="91.37" xlink:href="#e3"/>
<use x="333.33" y="91.21" xlink:href="#e3"/>
<use x="335.56" y="91.55" xlink:href="#e3"/>
<use x="337.78" y="92.01" xlink:href="#e3"/>
<use x="340" y="92.18" xlink:href="#e3"/>
<use x="342.22" y="91.69" xlink:href="#e3"/>
<use x="344.44" y="91.21" xlink:href="#e3"/>
<use x="346.67" y="90.82" xlink:href="#e3"/>
<use x="348.89" y="90.56" xlink:href="#e3"/>
<use x="351.11" y="90.63" xlink:href="#e3"/>
<use x="353.33" y="90.58" xlink:href="#e3"/>
<use x="355.56" y="90.53" xlink:href="#e3"/>
<use x="357.78" y="90.29" xlink:href="#e3"/>
<use x="360" y="90.2" xlink:href="#e3"/>
<use x="362.22" y="90.16" xlink:href="#e3"/>
<use x="364.44" y="90.1" xlink:href="#e3"/>
<use x="366.67" y="90.08" xlink:href="#e3"/>
<use x="368.89" y="89.98" xlink:href="#e3"/>
<use x="371.11" y="89.85" xlink:href="#e3"/>
<use x="373.33" y="89.62" xlink:href="#e3"/>
<use x="375.56" y="89.24" xlink:href="#e3"/>
<use x="377.78" y="89.06" xlink:href="#e3"/>
<use x="380" y="89.04" xlink:href="#e3"/>
<use x="382.22" y="88.96" xlink:href="#e3"/>
<use x="384.44" y="88.87" xlink:href="#e3"/>
<use x="386.67" y="88.65" xlink:href="#e3"/>
<use x="388.89" y="88.48" xlink:href="#e3"/>
<use x="391.11" y="88.23" xlink:href="#e3"/>
<use x="393.33" y="88.31" xlink:href="#e3"/>
<use x="395.56" y="88.1" xlink:href="#e3"/>
<use x="397.78" y="88.03" xlink:href="#e3"/>
<use x="400" y="87.87" xlink:href="#e3"/>
<use x="402.22" y="88.02" xlink:href="#e3"/>
<use x="404.44" y="87.74" xlink:href="#e3"/>
<use x="406.67" y="87.2" xlink:href="#e3"/>
<use x="408.89" y="87.03" xlink:href="#e3"/>
<use x="411.11" y="86.88" xlink:href="#e3"/>
<use x="413.33" y="86.82" xlink:href="#e3"/>
<use x="415.56" y="86.7" xlink:href="#e3"/>
<use x="417.78" y="86.5" xlink:href="#e3"/>
<use x="420" y="86.32" xlink:href="#e3"/>
<use x="422.22" y="86.05" xlink:href="#e3"/>
<use x="424.44" y="85.88" xlink:href="#e3"/>
<use x="426.67" y="85.7" xlink:href="#e3"/>
<use x="428.89" y="85.52" xlink:href="#e3"/>
<use x="431.11" y="85.41" xlink:href="#e3"/>
<use x="433.33" y="85.34" xlink:href="#e3"/>
<use x="435.56" y="85.16" xlink:href="#e3"/>
<use x="437.78" y="84.93" xlink:href="#e3"/>
<use x="440" y="84.71" xlink:href="#e3"/>
<use x="442.22" y="84.49" xlink:href="#e3"/>
<use x="444.44" y="84.27" xlink:href="#e3"/>
<use x="446.67" y="84.2" xlink:href="#e3"/>
<use x="448.89" y="83.98" xlink:href="#e3"/>
<use x="451.11" y="83.72" xlink:href="#e3"/>
<use x="453.33" y="83.41" xlink:href="#e3"/>
<use x="455.56" y="82.65" xlink:href="#e3"/>
<use x="457.78" y="82.45" xlink:href="#e3"/>
<use x="460" y="82.28" xlink:href="#e3"/>
<use x="462.22" y="81.96" xlink:href="#e3"/>
<use x="464.44" y="81.72" xlink:href="#e3"/>
<use x="466.67" y="81.69" xlink:href="#e3"/>
<use x="468.89" y="81.25" xlink:href="#e3"/>
<use x="471.11" y="80.79" xlink:href="#e3"/>
<use x="473.33" y="80.68" xlink:href="#e3"/>
<use x="475.56" y="80.57" xlink:href="#e3"/>
<use x="477.78" y="80.45" xlink:href="#e3"/>
<use x="480" y="80.13" xlink:href="#e3"/>
<use x="482.22" y="79.85" xlink:href="#e3"/>
<use x="484.44" y="79.45" xlink:href="#e3"/>
<use x="486.67" y="79.21" xlink:href="#e3"/>
<use x="488.89" y="78.98" xlink:href="#e3"/>
<use x="491.11" y="78.78" xlink:href="#e3"/>
<use x="493.33" y="78.61" xlink:href="#e3"/>
<use x="495.56" y="78.03" xlink:href="#e3"/>
<use x="497.78" y="77.65" xlink:href="#e3"/>
<use x="500" y="77.14" xlink:href="#e3"/>
<use x="502.22" y="76.91" xlink:href="#e3"/>
<use x="504.44" y="76.79" xlink:href="#e3"/>
<use x="506.67" y="76.72" xlink:href="#e3"/>
<use x="508.89" y="76.46" xlink:href="#e3"/>
<use x="511.11" y="76.18" xlink:href="#e3"/>
<use x="513.33" y="75.92" xlink:href="#e3"/>
<use x="515.56" y="75.62" xlink:href="#e3"/>
<use x="517.78" y="75.39" xlink:href="#e3"/>
<use x="520" y="75.25" xlink:href="#e3"/>
<use x="522.22" y="75.16" xlink:href="#e3"/>
<use x="524.44" y="74.98" xlink:href="#e3"/>
<use x="526.67" y="74.7" xlink:href="#e3"/>
<use x="528.89" y="73.7" xlink:href="#e3"/>
<use x="531.11" y="73.41" xlink:href="#e3"/>
<use x="533.33" y="73.14" xlink:href="#e3"/>
<use x="535.56" y="73" xlink:href="#e3"/>
<use x="537.78" y="72.87" xlink:href="#e3"/>
<use x="540" y="72.54" xlink:href="#e3"/>
<use x="542.22" y="72.2" xlink:href="#e3"/>
<use x="544.44" y="71.92" xlink:href="#e3"/>
<use x="546.67" y="71.57" xlink:href="#e3"/>
<use x="548.89" y="71.28" xlink:href="#e3"/>
<use x="551.11" y="71.08" xlink:href="#e3"/>
<use x="553.33" y="70.94" xlink:href="#e3"/>
<use x="555.56" y="70.7" xlink:href="#e3"/>
<use x="557.78" y="70.41" xlink:href="#e3"/>
<use x="560" y="70.07" xlink:href="#e3"/>
<use x="562.22" y="69.79" xlink:href="#e3"/>
<use x="564.44" y="69.54" xlink:href="#e3"/>
<use x="566.67" y="69.4" xlink:href="#e3"/>
<use x="568.89" y="69.31" xlink:href="#e3"/>
<use x="571.11" y="69.2" xlink:href="#e3"/>
<use x="573.33" y="68.85" xlink:href="#e3"/>
<use x="575.56" y="69.32" xlink:href="#e3"/>
<use x="577.78" y="69.05" xlink:href="#e3"/>
<use x="580" y="68.92" xlink:href="#e3"/>
<use x="582.22" y="68.99" xlink:href="#e3"/>
<use x="584.44" y="69.08" xlink:href="#e3"/>
<use x="586.67" y="69.14" xlink:href="#e3"/>
<use x="588.89" y="69.08" xlink:href="#e3"/>
<use x="591.11" y="69" xlink:href="#e3"/>
<use x="593.33" y="68.89" xlink:href="#e3"/>
<use x="595.56" y="68.91" xlink:href="#e3"/>
<use x="597.78" y="68.96" xlink:href="#e3"/>
<use x="600" y="69.01" xlink:href="#e3"/>
</svg>
